<svg id="Layer_1" data-name="Layer 1" xmlns="http://www.w3.org/2000/svg" width="155.75" height="92.23" viewBox="0 0 155.75 92.23">
  <title>chart1</title>
  <g>
    <g>
      <path d="M6.45,86.78A.83.83,0,0,1,5,86.13v-3a.85.85,0,0,1,.24-.66.89.89,0,0,1,1.17,0,.85.85,0,0,1,.24.66v3A.83.83,0,0,1,6.45,86.78Zm-.13-3.64c0-.36-.2-.54-.46-.54s-.45.18-.45.54v3c0,.36.2.53.45.53s.46-.17.46-.53Z" style="fill: #5d6770"/>
      <g>
        <path d="M4.11,70.92a.84.84,0,0,1-.59.25A.88.88,0,0,1,2.93,71a.92.92,0,0,1-.25-.67V70h.37v.31c0,.4.21.57.47.57a.39.39,0,0,0,.32-.17c.13-.16.16-.4.16-1s0-.86-.16-1a.38.38,0,0,0-.32-.16.49.49,0,0,0-.47.54v.21H2.71V66.49H4.3v.33H3v1.64a.58.58,0,0,1,.22-.22.63.63,0,0,1,.35-.09.63.63,0,0,1,.52.25c.19.23.24.52.24,1.24S4.33,70.67,4.11,70.92Z" style="fill: #5d6770"/>
        <path d="M6.46,70.94a.87.87,0,0,1-.6.23A.81.81,0,0,1,5,70.29v-3a.87.87,0,0,1,.24-.65.84.84,0,0,1,.58-.23.87.87,0,0,1,.6.23.86.86,0,0,1,.23.65v3A.85.85,0,0,1,6.46,70.94ZM6.32,67.3c0-.36-.2-.54-.46-.54s-.45.18-.45.54v3c0,.36.2.54.45.54s.46-.18.46-.54Z" style="fill: #5d6770"/>
      </g>
      <g>
        <path d="M1.07,55.28v-4.2l-.66.58v-.44l.66-.56h.37v4.62Z" style="fill: #5d6770"/>
        <path d="M4.11,55.11a.91.91,0,0,1-.59.22.89.89,0,0,1-.59-.22.89.89,0,0,1-.23-.66v-3a.87.87,0,0,1,.23-.66.85.85,0,0,1,.59-.23.87.87,0,0,1,.59.23.87.87,0,0,1,.23.66v3A.89.89,0,0,1,4.11,55.11ZM4,51.47c0-.37-.21-.54-.46-.54s-.46.17-.46.54v3c0,.36.2.54.46.54s.46-.18.46-.54Z" style="fill: #5d6770"/>
        <path d="M6.45,55.11a.89.89,0,0,1-1.17,0A.85.85,0,0,1,5,54.45v-3a.84.84,0,0,1,.24-.66.86.86,0,0,1,1.17,0,.84.84,0,0,1,.24.66v3A.85.85,0,0,1,6.45,55.11Zm-.13-3.64c0-.37-.2-.54-.46-.54s-.45.17-.45.54v3c0,.36.2.54.45.54s.46-.18.46-.54Z" style="fill: #5d6770"/>
      </g>
      <g>
        <path d="M1.07,39.45v-4.2l-.66.57v-.44l.66-.56h.37v4.63Z" style="fill: #5d6770"/>
        <path d="M4.11,39.24a.81.81,0,0,1-.59.26.84.84,0,0,1-.59-.22.88.88,0,0,1-.25-.66v-.31h.37v.32c0,.39.21.56.47.56A.38.38,0,0,0,3.84,39c.13-.17.16-.4.16-1s0-.87-.16-1a.38.38,0,0,0-.32-.16.49.49,0,0,0-.47.53v.22H2.71V34.82H4.3v.32H3v1.64a.7.7,0,0,1,.57-.31.65.65,0,0,1,.52.25c.19.24.24.53.24,1.25S4.33,39,4.11,39.24Z" style="fill: #5d6770"/>
        <path d="M6.45,39.27A.83.83,0,0,1,5,38.61v-3A.85.85,0,0,1,5.28,35a.89.89,0,0,1,1.17,0,.85.85,0,0,1,.24.66v3A.84.84,0,0,1,6.45,39.27Zm-.13-3.64c0-.36-.2-.54-.46-.54s-.45.18-.45.54v3c0,.37.2.54.45.54s.46-.17.46-.54Z" style="fill: #5d6770"/>
      </g>
      <g>
        <path d="M.33,23.61V23.3l1.11-2.53a2.45,2.45,0,0,0,.22-1c0-.36-.2-.54-.46-.54s-.46.18-.46.54v.33H.38V19.8a.88.88,0,0,1,.23-.65.91.91,0,0,1,.59-.22.82.82,0,0,1,.58.22.87.87,0,0,1,.24.66,2.82,2.82,0,0,1-.27,1.07l-1,2.4H2v.33Z" style="fill: #5d6770"/>
        <path d="M4.11,23.43a.87.87,0,0,1-.59.23.85.85,0,0,1-.59-.23.86.86,0,0,1-.23-.65v-3a.89.89,0,0,1,.23-.66.89.89,0,0,1,.59-.22.91.91,0,0,1,.59.22.89.89,0,0,1,.23.66v3A.86.86,0,0,1,4.11,23.43ZM4,19.79c0-.36-.21-.54-.46-.54s-.46.18-.46.54v3c0,.37.2.54.46.54s.46-.17.46-.54Z" style="fill: #5d6770"/>
        <path d="M6.45,23.43A.83.83,0,0,1,5,22.78v-3a.85.85,0,0,1,.24-.66.89.89,0,0,1,1.17,0,.85.85,0,0,1,.24.66v3A.83.83,0,0,1,6.45,23.43Zm-.13-3.64c0-.36-.2-.54-.46-.54s-.45.18-.45.54v3c0,.37.2.54.45.54s.46-.17.46-.54Z" style="fill: #5d6770"/>
      </g>
      <g>
        <path d="M.33,7.77V7.46L1.44,4.93a2.41,2.41,0,0,0,.22-1c0-.36-.2-.54-.46-.54S.74,3.59.74,4v.34H.38V4a.84.84,0,0,1,.23-.64.87.87,0,0,1,.59-.23.82.82,0,0,1,.58.22A.87.87,0,0,1,2,4a2.91,2.91,0,0,1-.27,1.08l-1,2.39H2v.33Z" style="fill: #5d6770"/>
        <path d="M4.11,7.57a.84.84,0,0,1-.59.25.88.88,0,0,1-.59-.21.92.92,0,0,1-.25-.67v-.3h.37V7c0,.4.21.57.47.57a.39.39,0,0,0,.32-.17C4,7.18,4,7,4,6.31s0-.86-.16-1a.38.38,0,0,0-.32-.16.49.49,0,0,0-.47.54v.21H2.71V3.14H4.3v.33H3V5.1a.63.63,0,0,1,.22-.21.63.63,0,0,1,.35-.09.63.63,0,0,1,.52.25c.19.23.24.52.24,1.24S4.33,7.32,4.11,7.57Z" style="fill: #5d6770"/>
        <path d="M6.45,7.59a.86.86,0,0,1-1.17,0A.81.81,0,0,1,5,6.94V4a.81.81,0,0,1,.24-.65.86.86,0,0,1,1.17,0A.81.81,0,0,1,6.69,4v3A.81.81,0,0,1,6.45,7.59ZM6.32,4c0-.36-.2-.54-.46-.54s-.45.18-.45.54V7c0,.36.2.54.45.54s.46-.18.46-.54Z" style="fill: #5d6770"/>
      </g>
    </g>
    <g>
      <g>
        <line x1="47.72" y1="49.24" x2="22.44" y2="52.5" style="fill: none;stroke: #f89c1c;stroke-linecap: round;stroke-miterlimit: 10;stroke-width: 2px"/>
        <line x1="73" y1="48.01" x2="47.72" y2="49.24" style="fill: none;stroke: #f89c1c;stroke-linecap: round;stroke-miterlimit: 10;stroke-width: 2px"/>
        <line x1="98.28" y1="42.02" x2="73" y2="48.01" style="fill: none;stroke: #f89c1c;stroke-linecap: round;stroke-miterlimit: 10;stroke-width: 2px"/>
        <line x1="123.56" y1="40.14" x2="98.28" y2="42.02" style="fill: none;stroke: #f89c1c;stroke-linecap: round;stroke-miterlimit: 10;stroke-width: 2px"/>
        <line x1="148.84" y1="44.94" x2="123.56" y2="40.14" style="fill: none;stroke: #f89c1c;stroke-linecap: round;stroke-miterlimit: 10;stroke-width: 2px"/>
      </g>
      <g>
        <line x1="47.72" y1="44.7" x2="22.44" y2="52.5" style="fill: none;stroke: #0079c1;stroke-linecap: round;stroke-width: 2px"/>
        <line x1="73" y1="41.77" x2="47.72" y2="44.7" style="fill: none;stroke: #0079c1;stroke-linecap: round;stroke-width: 2px"/>
        <line x1="98.28" y1="40.08" x2="73" y2="41.77" style="fill: none;stroke: #0079c1;stroke-linecap: round;stroke-width: 2px"/>
        <line x1="123.56" y1="32.19" x2="98.28" y2="40.08" style="fill: none;stroke: #0079c1;stroke-linecap: round;stroke-width: 2px"/>
        <line x1="148.84" y1="40.14" x2="123.56" y2="32.19" style="fill: none;stroke: #0079c1;stroke-linecap: round;stroke-width: 2px"/>
      </g>
      <g>
        <line x1="47.72" y1="48.22" x2="22.44" y2="52.5" style="fill: none;stroke: #48a842;stroke-linecap: round;stroke-width: 2px"/>
        <line x1="73" y1="42.04" x2="47.72" y2="48.22" style="fill: none;stroke: #48a842;stroke-linecap: round;stroke-width: 2px"/>
        <line x1="98.28" y1="26.67" x2="73" y2="42.04" style="fill: none;stroke: #48a842;stroke-linecap: round;stroke-width: 2px"/>
        <line x1="123.56" y1="27.4" x2="98.28" y2="26.67" style="fill: none;stroke: #48a842;stroke-linecap: round;stroke-width: 2px"/>
        <line x1="148.84" y1="24.96" x2="123.56" y2="27.4" style="fill: none;stroke: #48a842;stroke-linecap: round;stroke-width: 2px"/>
      </g>
    </g>
    <g>
      <g>
        <path d="M144.81,91V90.7l1-2.34a2.3,2.3,0,0,0,.2-.9c0-.34-.18-.5-.42-.5s-.42.16-.42.5v.3h-.34v-.3a.78.78,0,0,1,.22-.59.8.8,0,0,1,.54-.21.77.77,0,0,1,.54.21.8.8,0,0,1,.22.61,2.68,2.68,0,0,1-.25,1l-1,2.21h1.2V91Z" style="fill: #5d6770"/>
        <path d="M148.29,90.82a.8.8,0,0,1-.54.21.82.82,0,0,1-.54-.21.83.83,0,0,1-.22-.61V87.48a.8.8,0,0,1,.22-.61.82.82,0,0,1,.54-.21.8.8,0,0,1,.54.21.76.76,0,0,1,.22.61v2.73A.79.79,0,0,1,148.29,90.82Zm-.12-3.36c0-.34-.19-.5-.42-.5s-.42.16-.42.5v2.77c0,.33.19.5.42.5s.42-.17.42-.5Z" style="fill: #5d6770"/>
        <path d="M149.82,91V87.1l-.61.53v-.4l.61-.52h.34V91Z" style="fill: #5d6770"/>
        <path d="M152.63,90.82a.8.8,0,0,1-.55.21.77.77,0,0,1-.54-.21c-.19-.21-.24-.43-.24-1s0-.72.16-.89a.62.62,0,0,1,.24-.21.59.59,0,0,1-.24-.23,1.25,1.25,0,0,1-.13-.72c0-.51.06-.72.23-.89a.72.72,0,0,1,.52-.2.7.7,0,0,1,.52.2c.17.17.23.38.23.89a1.37,1.37,0,0,1-.12.72.59.59,0,0,1-.24.23.62.62,0,0,1,.24.21c.11.17.15.3.15.89S152.82,90.61,152.63,90.82ZM152.37,89a.39.39,0,0,0-.58,0c-.12.13-.15.28-.15.83s0,.66.15.8a.39.39,0,0,0,.58,0c.12-.13.15-.32.15-.8S152.49,89.1,152.37,89Zm0-1.9a.39.39,0,0,0-.28-.11.37.37,0,0,0-.27.11,1.06,1.06,0,0,0-.14.68c0,.39,0,.58.15.7a.33.33,0,0,0,.26.1.36.36,0,0,0,.27-.1c.11-.12.14-.31.14-.7A1.08,1.08,0,0,0,152.36,87.07Z" style="fill: #5d6770"/>
      </g>
      <g>
        <path d="M119.53,91V90.7l1-2.34a2.3,2.3,0,0,0,.2-.9c0-.34-.18-.5-.42-.5s-.42.16-.42.5v.3h-.34v-.3a.78.78,0,0,1,.22-.59.8.8,0,0,1,.54-.21.77.77,0,0,1,.54.21.8.8,0,0,1,.22.61,2.68,2.68,0,0,1-.25,1l-1,2.21h1.2V91Z" style="fill: #5d6770"/>
        <path d="M123,90.82a.85.85,0,0,1-.55.21.82.82,0,0,1-.54-.21.83.83,0,0,1-.22-.61V87.48a.8.8,0,0,1,.22-.61.82.82,0,0,1,.54-.21.85.85,0,0,1,.55.21.8.8,0,0,1,.21.61v2.73A.83.83,0,0,1,123,90.82Zm-.12-3.36c0-.34-.2-.5-.43-.5s-.42.16-.42.5v2.77c0,.33.19.5.42.5a.44.44,0,0,0,.43-.5Z" style="fill: #5d6770"/>
        <path d="M124.55,91V87.1l-.61.53v-.4l.61-.52h.33V91Z" style="fill: #5d6770"/>
        <path d="M126.47,91h-.36l1.15-4h-.92v.69H126v-1h1.6V87Z" style="fill: #5d6770"/>
      </g>
      <g>
        <path d="M94.25,91V90.7l1-2.34a2.29,2.29,0,0,0,.21-.9c0-.34-.19-.5-.42-.5s-.43.16-.43.5v.3h-.34v-.3a.78.78,0,0,1,.22-.59.85.85,0,0,1,.55-.21.75.75,0,0,1,.53.21.8.8,0,0,1,.22.61,2.87,2.87,0,0,1-.24,1l-1,2.21h1.2V91Z" style="fill: #5d6770"/>
        <path d="M97.74,90.82a.85.85,0,0,1-.55.21.82.82,0,0,1-.54-.21.83.83,0,0,1-.21-.61V87.48a.8.8,0,0,1,.21-.61.82.82,0,0,1,.54-.21.85.85,0,0,1,.55.21.8.8,0,0,1,.21.61v2.73A.83.83,0,0,1,97.74,90.82Zm-.12-3.36c0-.34-.19-.5-.43-.5s-.42.16-.42.5v2.77c0,.33.19.5.42.5s.43-.17.43-.5Z" style="fill: #5d6770"/>
        <path d="M99.27,91V87.1l-.61.53v-.4l.61-.52h.33V91Z" style="fill: #5d6770"/>
        <path d="M102.09,90.79a.72.72,0,0,1-.57.24.69.69,0,0,1-.55-.24c-.18-.21-.23-.44-.23-1.07a3.19,3.19,0,0,1,.18-1.15l.69-1.86h.33l-.68,1.83a.59.59,0,0,1,.35-.12.63.63,0,0,1,.48.21c.16.18.21.35.21,1.09S102.26,90.59,102.09,90.79Zm-.27-2a.39.39,0,0,0-.3-.12.41.41,0,0,0-.3.12c-.12.15-.14.4-.14.89s0,.74.14.88a.42.42,0,0,0,.3.13.4.4,0,0,0,.3-.13c.13-.14.15-.39.15-.88S102,89,101.82,88.83Z" style="fill: #5d6770"/>
      </g>
      <g>
        <path d="M69,91V90.7l1-2.34a2.13,2.13,0,0,0,.21-.9c0-.34-.19-.5-.42-.5s-.43.16-.43.5v.3H69v-.3a.78.78,0,0,1,.21-.59.85.85,0,0,1,.55-.21.73.73,0,0,1,.53.21.8.8,0,0,1,.22.61,2.87,2.87,0,0,1-.24,1l-1,2.21h1.2V91Z" style="fill: #5d6770"/>
        <path d="M72.46,90.82a.85.85,0,0,1-.55.21.82.82,0,0,1-.54-.21.83.83,0,0,1-.21-.61V87.48a.8.8,0,0,1,.21-.61.82.82,0,0,1,.54-.21.85.85,0,0,1,.55.21.8.8,0,0,1,.22.61v2.73A.83.83,0,0,1,72.46,90.82Zm-.12-3.36c0-.34-.19-.5-.43-.5s-.42.16-.42.5v2.77c0,.33.19.5.42.5s.43-.17.43-.5Z" style="fill: #5d6770"/>
        <path d="M74,91V87.1l-.61.53v-.4l.61-.52h.34V91Z" style="fill: #5d6770"/>
        <path d="M76.79,90.79a.7.7,0,0,1-.54.24.79.79,0,0,1-.54-.2.78.78,0,0,1-.23-.61v-.28h.33v.28c0,.37.2.53.44.53a.35.35,0,0,0,.3-.16c.11-.15.15-.37.15-1a1.73,1.73,0,0,0-.15-.95.36.36,0,0,0-.3-.14.45.45,0,0,0-.44.49v.2H75.5V86.71H77V87H75.81v1.51a.64.64,0,0,1,.2-.2.61.61,0,0,1,.32-.08.59.59,0,0,1,.49.23c.17.21.21.48.21,1.15S77,90.56,76.79,90.79Z" style="fill: #5d6770"/>
      </g>
      <g>
        <path d="M43.7,91V90.7l1-2.34a2.3,2.3,0,0,0,.2-.9c0-.34-.19-.5-.42-.5s-.43.16-.43.5v.3h-.33v-.3a.78.78,0,0,1,.21-.59.85.85,0,0,1,.55-.21.73.73,0,0,1,.53.21.76.76,0,0,1,.22.61,2.66,2.66,0,0,1-.24,1l-.95,2.21h1.19V91Z" style="fill: #5d6770"/>
        <path d="M47.18,90.82a.76.76,0,0,1-1.3-.61V87.48a.76.76,0,0,1,.22-.61.76.76,0,0,1,1.3.61v2.73A.83.83,0,0,1,47.18,90.82Zm-.12-3.36c0-.34-.19-.5-.42-.5s-.42.16-.42.5v2.77c0,.33.18.5.42.5s.42-.17.42-.5Z" style="fill: #5d6770"/>
        <path d="M48.71,91V87.1l-.61.53v-.4l.61-.52h.34V91Z" style="fill: #5d6770"/>
        <path d="M51.56,90.24V91h-.34v-.74H50.09v-.3l1.08-3.23h.33l-1.07,3.23h.79v-1.2h.34v1.2h.29v.3Z" style="fill: #5d6770"/>
      </g>
      <g>
        <path d="M18.42,91V90.7l1-2.34a2.3,2.3,0,0,0,.2-.9c0-.34-.18-.5-.42-.5s-.42.16-.42.5v.3h-.34v-.3a.75.75,0,0,1,.22-.59.8.8,0,0,1,.54-.21.73.73,0,0,1,.53.21.77.77,0,0,1,.23.61,2.68,2.68,0,0,1-.25,1l-.95,2.21H20V91Z" style="fill: #5d6770"/>
        <path d="M21.9,90.82a.8.8,0,0,1-1.08,0,.83.83,0,0,1-.22-.61V87.48a.76.76,0,1,1,1.52,0v2.73A.83.83,0,0,1,21.9,90.82Zm-.12-3.36c0-.34-.19-.5-.42-.5s-.42.16-.42.5v2.77c0,.33.18.5.42.5s.42-.17.42-.5Z" style="fill: #5d6770"/>
        <path d="M23.43,91V87.1l-.61.53v-.4l.61-.52h.34V91Z" style="fill: #5d6770"/>
        <path d="M26.21,90.82a.82.82,0,0,1-.54.21.75.75,0,0,1-.77-.81v-.3h.34v.3c0,.34.19.51.43.51A.38.38,0,0,0,26,90.6c.11-.13.16-.32.16-.81s0-.69-.15-.83a.41.41,0,0,0-.3-.12h-.25v-.3h.25a.38.38,0,0,0,.27-.1c.1-.12.14-.29.14-.69s0-.57-.14-.68a.35.35,0,0,0-.27-.11c-.24,0-.4.17-.4.5v.3h-.34v-.29a.79.79,0,0,1,.21-.6.75.75,0,0,1,.53-.21.7.7,0,0,1,.52.2c.16.16.23.37.23.88a1.31,1.31,0,0,1-.13.73.61.61,0,0,1-.23.22.78.78,0,0,1,.23.21c.13.17.16.31.16.9S26.41,90.61,26.21,90.82Z" style="fill: #5d6770"/>
      </g>
    </g>
  </g>
  <line x1="14.96" y1="52.54" x2="149.09" y2="52.54" style="fill: none;stroke: #5d6770;stroke-linecap: round;stroke-width: 0.47226px;stroke-dasharray: 2.833559989929199,2.833559989929199"/>
  <g>
    <g>
      <path d="M30.17,11a.92.92,0,0,1-1.12,0,.9.9,0,0,1-.21-.73h.3c0,.28,0,.42.14.53a.42.42,0,0,0,.33.12.41.41,0,0,0,.34-.12c.12-.12.14-.28.14-.56,0-.44-.07-.6-.37-.73l-.38-.15c-.37-.15-.47-.36-.47-.89a1,1,0,0,1,.24-.71.82.82,0,0,1,1.06,0,.88.88,0,0,1,.21.69h-.29A.65.65,0,0,0,30,8a.4.4,0,0,0-.32-.13.42.42,0,0,0-.31.11.71.71,0,0,0-.16.51c0,.41.06.53.39.67l.38.15c.38.16.46.44.46.95A1,1,0,0,1,30.17,11Z" style="fill: #0079c1"/>
      <path d="M32.7,11.18l-.27-.42a1,1,0,0,1-.83.46.78.78,0,0,1-.79-.86,1.44,1.44,0,0,1,.62-1.12c-.34-.48-.45-.65-.45-.93a.66.66,0,0,1,.66-.72.62.62,0,0,1,.67.67,1.29,1.29,0,0,1-.54,1l.66,1a2.12,2.12,0,0,0,.23-.84h.27a2.3,2.3,0,0,1-.34,1.09l.43.66ZM31.57,9.46a1.25,1.25,0,0,0-.48.88.56.56,0,0,0,.54.62c.26,0,.45-.18.65-.43Zm.08-1.61a.41.41,0,0,0-.4.45c0,.2.08.34.37.76A1,1,0,0,0,32,8.27.39.39,0,0,0,31.65,7.85Z" style="fill: #0079c1"/>
      <path d="M34.09,9.61h-.4v1.57h-.3V7.62h.7c.43,0,.77.16.77,1S34.6,9.61,34.09,9.61Zm0-1.72h-.41V9.34h.41c.36,0,.47-.26.47-.72S34.46,7.89,34.1,7.89Z" style="fill: #0079c1"/>
      <path d="M37.42,11a.6.6,0,0,1-.45.19.65.65,0,0,1-.45-.16.68.68,0,0,1-.19-.51v-.24h.28v.24c0,.31.16.44.36.44a.29.29,0,0,0,.25-.13c.09-.13.12-.31.12-.8s0-.66-.12-.79A.28.28,0,0,0,37,9.15a.37.37,0,0,0-.36.41v.16h-.26V7.62h1.22v.25h-1V9.13A.52.52,0,0,1,36.77,9,.45.45,0,0,1,37,8.9a.5.5,0,0,1,.4.19c.15.18.18.4.18,1S37.59,10.84,37.42,11Z" style="fill: #0079c1"/>
      <path d="M39.23,11.05a.69.69,0,0,1-.91,0,.67.67,0,0,1-.18-.51V8.26a.64.64,0,1,1,1.27,0v2.28A.67.67,0,0,1,39.23,11.05Zm-.1-2.8c0-.28-.16-.42-.36-.42s-.35.14-.35.42v2.31c0,.28.16.41.35.41s.36-.13.36-.41Z" style="fill: #0079c1"/>
      <path d="M41,11.05a.67.67,0,0,1-.45.17.65.65,0,0,1-.45-.17.67.67,0,0,1-.18-.51V8.26a.66.66,0,0,1,.18-.5.62.62,0,0,1,.45-.18.63.63,0,0,1,.45.18.66.66,0,0,1,.18.5v2.28A.67.67,0,0,1,41,11.05Zm-.1-2.8c0-.28-.16-.42-.35-.42s-.35.14-.35.42v2.31c0,.28.15.41.35.41s.35-.13.35-.41Z" style="fill: #0079c1"/>
      <path d="M41.93,9.49V9.11h.38v.38Zm0,1.69v-.37h.38v.37Z" style="fill: #0079c1"/>
      <path d="M45.12,11a.62.62,0,0,1-.4.18v.56h-.27v-.55A.77.77,0,0,1,44,11a.9.9,0,0,1-.21-.73h.3c0,.28,0,.42.14.53a.36.36,0,0,0,.22.11V9.44l-.16-.06c-.37-.15-.47-.36-.47-.89a.93.93,0,0,1,.25-.71.71.71,0,0,1,.38-.18V7.15h.27V7.6a.66.66,0,0,1,.4.19.85.85,0,0,1,.22.69H45A.7.7,0,0,0,44.91,8a.35.35,0,0,0-.19-.12V9.24l.16.06c.39.15.46.44.46.95A1,1,0,0,1,45.12,11Zm-.67-3.15a.52.52,0,0,0-.18.1.71.71,0,0,0-.15.51c0,.39.05.52.33.65Zm.27,1.68v1.38a.4.4,0,0,0,.19-.11.77.77,0,0,0,.14-.56C45.05,9.84,45,9.67,44.72,9.55Z" style="fill: #0079c1"/>
      <path d="M46.23,11.18V8l-.51.44V8.06l.51-.44h.28v3.56Z" style="fill: #0079c1"/>
      <path d="M48.57,11.05a.65.65,0,0,1-.46.17.64.64,0,0,1-.45-.17c-.16-.17-.2-.36-.2-.85s0-.6.13-.74a.7.7,0,0,1,.2-.18.52.52,0,0,1-.2-.19,1.1,1.1,0,0,1-.1-.6c0-.43,0-.6.19-.74a.58.58,0,0,1,.43-.17.6.6,0,0,1,.44.17c.14.14.19.31.19.74a1.1,1.1,0,0,1-.1.6.52.52,0,0,1-.2.19.7.7,0,0,1,.2.18c.09.14.12.25.12.74S48.73,10.88,48.57,11.05Zm-.21-1.54a.33.33,0,0,0-.25-.11.32.32,0,0,0-.24.11c-.1.11-.13.23-.13.69s0,.55.13.67a.31.31,0,0,0,.24.1.32.32,0,0,0,.25-.1c.09-.11.12-.27.12-.67S48.46,9.62,48.36,9.51Zm0-1.58a.26.26,0,0,0-.23-.1.26.26,0,0,0-.22.1c-.08.09-.12.24-.12.56s0,.49.12.58a.29.29,0,0,0,.22.09.32.32,0,0,0,.23-.09c.09-.09.12-.25.12-.58S48.42,8,48.34,7.93Z" style="fill: #0079c1"/>
      <path d="M49.64,11.18h-.3l1-3.31h-.77v.58h-.28V7.62h1.34v.23Z" style="fill: #0079c1"/>
      <path d="M51.13,11.18v-.37h.38v.37Z" style="fill: #0079c1"/>
      <path d="M52.44,11.18h-.3l1-3.31h-.77v.58h-.28V7.62h1.34v.23Z" style="fill: #0079c1"/>
      <path d="M55,11.05a.69.69,0,0,1-.91,0,.67.67,0,0,1-.18-.51V8.26a.64.64,0,1,1,1.27,0v2.28A.67.67,0,0,1,55,11.05Zm-.1-2.8c0-.28-.16-.42-.36-.42s-.35.14-.35.42v2.31c0,.28.16.41.35.41s.36-.13.36-.41Z" style="fill: #0079c1"/>
    </g>
    <rect x="23.24" y="7.4" width="3.78" height="3.78" style="fill: #0079c1"/>
  </g>
  <g>
    <g>
      <path d="M29.68,16.36h-.4v1.58H29V14.38h.7c.43,0,.77.15.77,1S30.19,16.36,29.68,16.36Zm0-1.72h-.41V16.1h.41c.36,0,.47-.26.47-.73S30.05,14.64,29.69,14.64Z" style="fill: #f89c1c"/>
      <path d="M31.19,16.71c0,.52,0,.78.13.91a.35.35,0,0,0,.26.11.32.32,0,0,0,.25-.1.49.49,0,0,0,.12-.36h.27a.71.71,0,0,1-.18.54.67.67,0,0,1-.46.17.59.59,0,0,1-.46-.18c-.17-.18-.21-.52-.21-1.13s0-1,.21-1.13a.59.59,0,0,1,.45-.19.59.59,0,0,1,.46.19c.18.19.2.55.2,1.17Zm.63-1a.29.29,0,0,0-.25-.12.3.3,0,0,0-.25.12c-.1.11-.12.33-.13.76H32C31.94,16.05,31.92,15.83,31.82,15.72Z" style="fill: #f89c1c"/>
      <path d="M32.94,16.71c0,.52,0,.78.13.91a.33.33,0,0,0,.25.11.35.35,0,0,0,.26-.1.53.53,0,0,0,.11-.36H34a.75.75,0,0,1-.19.54.65.65,0,0,1-.46.17.59.59,0,0,1-.46-.18c-.17-.18-.2-.52-.2-1.13s0-1,.2-1.13a.59.59,0,0,1,.46-.19.59.59,0,0,1,.45.19c.18.19.2.55.2,1.17Zm.63-1a.32.32,0,0,0-.25-.12.32.32,0,0,0-.26.12c-.1.11-.12.33-.12.76h.75C33.69,16.05,33.67,15.83,33.57,15.72Z" style="fill: #f89c1c"/>
      <path d="M35.26,15.62a.46.46,0,0,0-.49.49v1.83h-.28V15.39h.27v.27a1,1,0,0,1,.13-.16.63.63,0,0,1,.43-.15v.27Z" style="fill: #f89c1c"/>
      <path d="M37.42,18a.7.7,0,0,1-.53-.21c-.22-.24-.25-.52-.25-1.61s0-1.37.25-1.61a.79.79,0,0,1,1,0,.94.94,0,0,1,.22.66h-.29c0-.28-.09-.59-.45-.59a.39.39,0,0,0-.31.13c-.15.18-.17.38-.17,1.43s0,1.25.17,1.43a.39.39,0,0,0,.31.13c.26,0,.45-.2.45-.54V16.3h-.45v-.25h.74v1.13A.73.73,0,0,1,37.42,18Z" style="fill: #f89c1c"/>
      <path d="M39.52,15.62a.46.46,0,0,0-.5.49v1.83h-.28V15.39H39v.27a.61.61,0,0,1,.12-.16.67.67,0,0,1,.44-.15v.27Z" style="fill: #f89c1c"/>
      <path d="M41,17.78a.55.55,0,0,1-.47.2.56.56,0,0,1-.47-.2,1.85,1.85,0,0,1-.19-1.11,1.85,1.85,0,0,1,.19-1.11.57.57,0,0,1,.47-.21.55.55,0,0,1,.47.21c.16.18.19.51.19,1.11S41.17,17.6,41,17.78Zm-.22-2.06a.32.32,0,0,0-.5,0c-.12.14-.13.4-.13,1s0,.81.13.95a.34.34,0,0,0,.5,0c.12-.14.13-.4.13-.95S40.91,15.86,40.79,15.72Z" style="fill: #f89c1c"/>
      <path d="M42.7,17.94v-.2a.67.67,0,0,1-.14.15.48.48,0,0,1-.29.09.51.51,0,0,1-.4-.17.66.66,0,0,1-.16-.5V15.39H42v1.92c0,.28.16.42.35.42s.36-.14.36-.42V15.39H43v2.55Z" style="fill: #f89c1c"/>
      <path d="M44.7,17.8a.49.49,0,0,1-.39.18A.45.45,0,0,1,44,17.9a.41.41,0,0,1-.14-.15V19H43.6V15.39h.27v.21a.58.58,0,0,1,.15-.16.46.46,0,0,1,.29-.09.5.5,0,0,1,.39.18c.16.18.19.5.19,1.14S44.86,17.62,44.7,17.8Zm-.22-2.08a.3.3,0,0,0-.24-.12.33.33,0,0,0-.24.1.43.43,0,0,0-.12.35v1.24a.45.45,0,0,0,.12.35.34.34,0,0,0,.48,0c.12-.14.13-.4.13-.95S44.6,15.86,44.48,15.72Z" style="fill: #f89c1c"/>
      <path d="M45.56,16.24v-.38h.38v.38Zm0,1.7v-.37h.38v.37Z" style="fill: #f89c1c"/>
      <path d="M48.75,17.78a.62.62,0,0,1-.4.18v.55h-.27V18a.71.71,0,0,1-.44-.19.9.9,0,0,1-.22-.73h.3c0,.28,0,.42.14.53a.36.36,0,0,0,.22.11V16.2l-.16-.07c-.36-.15-.47-.35-.47-.89a.91.91,0,0,1,.25-.7.65.65,0,0,1,.38-.18v-.45h.27v.45a.65.65,0,0,1,.4.18.86.86,0,0,1,.22.69h-.3a.72.72,0,0,0-.13-.49.4.4,0,0,0-.19-.11V16l.16.07c.39.15.46.43.46,1A1,1,0,0,1,48.75,17.78Zm-.67-3.15a.4.4,0,0,0-.18.1.71.71,0,0,0-.15.51c0,.39,0,.52.33.64Zm.27,1.68v1.38a.4.4,0,0,0,.19-.11.77.77,0,0,0,.14-.56C48.68,16.59,48.61,16.43,48.35,16.31Z" style="fill: #f89c1c"/>
      <path d="M49.86,17.94V14.71l-.51.44v-.34l.51-.43h.28v3.56Z" style="fill: #f89c1c"/>
      <path d="M51.09,17.94v-.23l.86-2a1.89,1.89,0,0,0,.17-.75c0-.28-.16-.41-.35-.41s-.36.13-.36.41v.26h-.28V15a.66.66,0,0,1,.18-.5.7.7,0,0,1,.46-.17.6.6,0,0,1,.44.17.67.67,0,0,1,.19.51,2.12,2.12,0,0,1-.21.82l-.79,1.85h1v.25Z" style="fill: #f89c1c"/>
      <path d="M54,17.81a.67.67,0,0,1-.45.17.61.61,0,0,1-.45-.17.66.66,0,0,1-.19-.5v-.25h.28v.25c0,.28.16.42.36.42a.3.3,0,0,0,.24-.1c.1-.11.13-.27.13-.68s0-.58-.12-.69a.33.33,0,0,0-.25-.11h-.21v-.24h.21a.28.28,0,0,0,.22-.09c.09-.1.12-.24.12-.57s0-.48-.11-.57a.32.32,0,0,0-.23-.09c-.2,0-.33.14-.33.41v.26h-.28V15a.66.66,0,0,1,.17-.5.6.6,0,0,1,.44-.17.64.64,0,0,1,.44.16c.13.14.18.31.18.74a1.12,1.12,0,0,1-.1.6.46.46,0,0,1-.2.19.69.69,0,0,1,.2.17c.1.15.13.26.13.76S54.15,17.64,54,17.81Z" style="fill: #f89c1c"/>
      <path d="M54.76,17.94v-.37h.38v.37Z" style="fill: #f89c1c"/>
      <path d="M56.8,17.81a.63.63,0,0,1-.45.17.61.61,0,0,1-.45-.17c-.16-.17-.2-.36-.2-.85s0-.6.13-.75A.49.49,0,0,1,56,16a.61.61,0,0,1-.2-.19,1.14,1.14,0,0,1-.11-.61c0-.42.05-.6.19-.74a.64.64,0,0,1,.44-.16.61.61,0,0,1,.43.16c.14.14.19.32.19.74a1.16,1.16,0,0,1-.1.61.61.61,0,0,1-.2.19.49.49,0,0,1,.2.17c.1.15.13.25.13.75S57,17.64,56.8,17.81Zm-.21-1.55a.31.31,0,0,0-.24-.1.32.32,0,0,0-.25.1c-.1.11-.12.23-.12.7s0,.55.12.67a.32.32,0,0,0,.25.1.31.31,0,0,0,.24-.1c.1-.11.13-.27.13-.67S56.69,16.37,56.59,16.26Zm0-1.58a.32.32,0,0,0-.23-.09.3.3,0,0,0-.23.09c-.08.09-.12.24-.12.57s0,.48.13.58a.34.34,0,0,0,.44,0c.1-.1.12-.26.12-.58S56.66,14.77,56.58,14.68Z" style="fill: #f89c1c"/>
      <path d="M57.87,17.94h-.29l1-3.31h-.77v.58h-.27v-.83h1.33v.22Z" style="fill: #f89c1c"/>
    </g>
    <rect x="23.24" y="13.77" width="3.78" height="3.78" style="fill: #f89c1c"/>
  </g>
  <g>
    <g>
      <path d="M30.18,3.82a.74.74,0,0,1-.49.17.7.7,0,0,1-.53-.21c-.23-.24-.25-.52-.25-1.61s0-1.38.25-1.62a.78.78,0,0,1,1,0,1,1,0,0,1,.23.67h-.3A.66.66,0,0,0,30,.73a.36.36,0,0,0-.3-.12.4.4,0,0,0-.32.13c-.14.17-.17.38-.17,1.43s0,1.25.17,1.42a.4.4,0,0,0,.32.13A.36.36,0,0,0,30,3.6a.66.66,0,0,0,.14-.47h.3A1,1,0,0,1,30.18,3.82Z" style="fill: #48a842"/>
      <path d="M31.11,3.79a.66.66,0,0,1-.19-.52V.38h.28V3.27a.38.38,0,0,0,.41.43V4A.69.69,0,0,1,31.11,3.79Z" style="fill: #48a842"/>
      <path d="M33.05,3.79a.59.59,0,0,1-.47.2.58.58,0,0,1-.47-.2c-.16-.19-.19-.51-.19-1.11s0-.93.19-1.12a.58.58,0,0,1,.47-.2.59.59,0,0,1,.47.2,1.91,1.91,0,0,1,.19,1.12A1.87,1.87,0,0,1,33.05,3.79Zm-.22-2.07a.34.34,0,0,0-.25-.11.37.37,0,0,0-.26.11c-.11.14-.12.41-.12,1s0,.8.12.94a.34.34,0,0,0,.26.12.32.32,0,0,0,.25-.12c.11-.14.13-.4.13-.94S32.94,1.86,32.83,1.72Z" style="fill: #48a842"/>
      <path d="M34.54,1.62a.46.46,0,0,0-.49.5V4h-.28V1.4H34v.27a.53.53,0,0,1,.13-.16.58.58,0,0,1,.43-.15v.26Z" style="fill: #48a842"/>
      <path d="M36,3.79a.59.59,0,0,1-.47.2.58.58,0,0,1-.47-.2c-.16-.19-.19-.51-.19-1.11s0-.93.19-1.12a.58.58,0,0,1,.47-.2.59.59,0,0,1,.47.2,1.91,1.91,0,0,1,.19,1.12A1.87,1.87,0,0,1,36,3.79Zm-.22-2.07a.34.34,0,0,0-.25-.11.37.37,0,0,0-.26.11c-.11.14-.12.41-.12,1s0,.8.12.94a.34.34,0,0,0,.26.12.32.32,0,0,0,.25-.12c.11-.14.13-.4.13-.94S35.93,1.86,35.82,1.72Z" style="fill: #48a842"/>
      <path d="M37.66,4,37.25,2.9,36.84,4h-.31l.56-1.3L36.56,1.4h.31l.38,1,.38-1h.31L37.4,2.65,38,4Z" style="fill: #48a842"/>
      <path d="M38.5,2.25V1.87h.38v.38Zm0,1.7V3.57h.38V4Z" style="fill: #48a842"/>
      <path d="M41.69,3.79a.68.68,0,0,1-.4.18v.55H41V4a.65.65,0,0,1-.44-.18.91.91,0,0,1-.21-.73h.29a.69.69,0,0,0,.14.53A.51.51,0,0,0,41,3.7V2.21l-.16-.07c-.36-.15-.47-.36-.47-.89a.93.93,0,0,1,.25-.71A.71.71,0,0,1,41,.36V-.09h.27V.36a.66.66,0,0,1,.4.19.85.85,0,0,1,.22.69h-.3a.7.7,0,0,0-.13-.49.35.35,0,0,0-.19-.12V2l.16.06c.39.15.46.44.46,1A1,1,0,0,1,41.69,3.79ZM41,.63a.52.52,0,0,0-.18.1.71.71,0,0,0-.15.51c0,.39.05.52.33.65Zm.27,1.69V3.69a.39.39,0,0,0,.19-.1A.79.79,0,0,0,41.62,3C41.62,2.6,41.55,2.44,41.29,2.32Z" style="fill: #48a842"/>
      <path d="M43.77,4V.71l-.51.44V.82l.51-.44h.28V4Z" style="fill: #48a842"/>
      <path d="M46.11,3.81a.67.67,0,0,1-.91,0C45,3.64,45,3.46,45,3s0-.6.13-.75a.88.88,0,0,1,.2-.18.52.52,0,0,1-.2-.19,1.1,1.1,0,0,1-.1-.6c0-.43,0-.6.19-.74a.58.58,0,0,1,.43-.17.6.6,0,0,1,.44.17c.14.14.19.31.19.74a1.1,1.1,0,0,1-.1.6A.52.52,0,0,1,46,2a.88.88,0,0,1,.2.18c.09.15.12.25.12.75S46.27,3.64,46.11,3.81ZM45.9,2.27a.32.32,0,0,0-.25-.1.31.31,0,0,0-.24.1c-.1.11-.13.23-.13.69s0,.56.13.67a.32.32,0,0,0,.24.11.33.33,0,0,0,.25-.11C46,3.52,46,3.37,46,3S46,2.38,45.9,2.27Zm0-1.58a.26.26,0,0,0-.23-.1.26.26,0,0,0-.22.1c-.08.09-.12.24-.12.56s0,.49.12.58a.29.29,0,0,0,.22.09.32.32,0,0,0,.23-.09c.09-.09.12-.25.12-.58S46,.78,45.88.69Z" style="fill: #48a842"/>
      <path d="M47.93,3.79a.62.62,0,0,1-.47.2.59.59,0,0,1-.47-.2c-.15-.18-.18-.36-.18-.89a2.67,2.67,0,0,1,.14-1L47.53.38h.28l-.57,1.54a.42.42,0,0,1,.29-.11.54.54,0,0,1,.4.18c.13.14.18.29.18.91S48.07,3.62,47.93,3.79Zm-.22-1.63a.32.32,0,0,0-.25-.11.3.3,0,0,0-.25.11c-.11.12-.12.33-.12.74s0,.61.12.73a.33.33,0,0,0,.25.11.34.34,0,0,0,.25-.11c.1-.12.12-.32.12-.73S47.81,2.27,47.71,2.16Z" style="fill: #48a842"/>
      <path d="M48.67,4V3.57h.38V4Z" style="fill: #48a842"/>
      <path d="M50.76,2.39,50.19,4h-.28l.57-1.53a.46.46,0,0,1-.29.1.5.5,0,0,1-.4-.18c-.13-.14-.18-.29-.18-.91s0-.72.18-.89a.62.62,0,0,1,.47-.2.59.59,0,0,1,.47.2c.15.18.18.36.18.89A2.65,2.65,0,0,1,50.76,2.39ZM50.51.7a.34.34,0,0,0-.25-.11A.33.33,0,0,0,50,.7c-.11.12-.12.32-.12.73s0,.63.12.74a.3.3,0,0,0,.25.11.31.31,0,0,0,.25-.11c.1-.12.12-.33.12-.74S50.61.82,50.51.7Z" style="fill: #48a842"/>
      <path d="M52.5,3.81A.66.66,0,0,1,52,4a.69.69,0,0,1-.45-.17.67.67,0,0,1-.18-.51V3.07h.28v.25c0,.28.16.42.35.42a.33.33,0,0,0,.25-.11c.09-.11.13-.26.13-.67s0-.58-.13-.69A.33.33,0,0,0,52,2.16h-.2V1.92H52a.33.33,0,0,0,.23-.1c.09-.09.12-.24.12-.57s0-.47-.12-.56A.26.26,0,0,0,52,.59c-.19,0-.33.14-.33.42v.25h-.28V1a.67.67,0,0,1,.18-.51A.62.62,0,0,1,52,.34a.59.59,0,0,1,.44.17c.14.13.19.31.19.73a1.16,1.16,0,0,1-.1.61.61.61,0,0,1-.2.19.67.67,0,0,1,.2.17c.1.15.13.26.13.76S52.66,3.64,52.5,3.81Z" style="fill: #48a842"/>
    </g>
    <rect x="23.24" width="3.78" height="3.78" style="fill: #48a842"/>
  </g>
  <line x1="14.23" y1="84.17" x2="155.83" y2="84.17" style="fill: none;stroke: #5d6770;stroke-miterlimit: 10;stroke-width: 0.5px"/>
</svg>
