<?xml version="1.0" encoding="utf-8"?>
<!-- Generator: Adobe Illustrator 21.1.0, SVG Export Plug-In . SVG Version: 6.00 Build 0)  -->
<svg version="1.1" id="Layer_1" xmlns="http://www.w3.org/2000/svg" xmlns:xlink="http://www.w3.org/1999/xlink" x="0px" y="0px"
	 viewBox="0 0 5.7 9.9" enable-background="new 0 0 5.7 9.9" xml:space="preserve">
<path fill="#524E85" d="M2.4,1.5c0.1,0,0.3,0,0.4,0.1c0.1,0,0.4,0.2,0.5,0.2c0.1,0,0.1,0.2,0.3,0.3c0.2,0.1,0.1,0.1,0.5,0.3
	c0.4,0.2,0.6,1.2,0.6,1.4c0,0.1,0,0.2-0.3,0.2C4.1,4,3.3,3.5,3.1,3.2C2.9,3,2.2,1.9,2.2,1.8C2.2,1.8,2.2,1.6,2.4,1.5 M0.7,0.6l1.9,0
	v0l0,0l0-0.5c0,0-0.1,0-0.1,0v0C2.3,0,2,0,2,0S1.5,0,1.1,0C0.8,0,0.8,0,0.8,0l0,0C0.7,0,0.7,0.1,0.7,0.1L0.7,0.6L0.7,0.6L0.7,0.6
	l0.1,0l0,0.1c0,0,0.1,0,0.1,0l-0.1,0l0,0.1c0,0-0.1,0.1-0.1,0.1c-0.1,0-0.1,0.1-0.1,0.1h0C0.5,1,0.3,1.3,0.2,1.5
	C0.2,1.8,0,2.3,0,2.7s0,1.9,0,1.9c0,0,0,0.1,0,0.2v3.9c0,0-0.1,0.2-0.1,0.2c0,0.3,0,0.6,0,0.6c0,0.1,0.4,0.3,1.4,0.4
	c1,0,2.3,0,2.6,0c0.4,0,1.3,0,1.6-0.4V8.9c0-0.1-0.1-0.2-0.1-0.3c0-0.1,0-3.8,0-3.8s0.1-0.2,0.1-0.2c0,0,0-1.8-0.5-2.3
	c-0.5-0.5-0.8-0.7-1-0.9C3.9,1.3,3.6,1.3,3.5,1.2c-0.1,0-0.2-0.1-0.4-0.1S2.9,1,2.7,0.9c0,0-0.1,0-0.1,0c0,0,0,0-0.1,0
	c0,0-0.1,0-0.1,0l0.1-0.2L2.4,0.4l0,0.2"/>
<g>
</g>
<g>
</g>
<g>
</g>
<g>
</g>
<g>
</g>
<g>
</g>
<g>
</g>
<g>
</g>
<g>
</g>
<g>
</g>
<g>
</g>
<g>
</g>
<g>
</g>
<g>
</g>
<g>
</g>
</svg>
