<svg id="Layer_1" data-name="Layer 1" xmlns="http://www.w3.org/2000/svg" width="12.28" height="12.27" viewBox="0 0 12.28 12.27">
  <title>checkmark</title>
  <path d="M12.28,6.14A6.14,6.14,0,1,1,6.14,0a6.13,6.13,0,0,1,6.14,6.14" style="fill: #48a842"/>
  <path d="M9.64,4.76,6.25,8.15l-.64.64a.44.44,0,0,1-.32.13A.42.42,0,0,1,5,8.79l-.64-.64L2.64,6.46a.45.45,0,0,1-.14-.32.43.43,0,0,1,.14-.32l.63-.64a.5.5,0,0,1,.32-.13.46.46,0,0,1,.32.13L5.29,6.56,8.36,3.48a.5.5,0,0,1,.32-.13A.46.46,0,0,1,9,3.48l.64.64a.46.46,0,0,1,0,.64" style="fill: #fff"/>
</svg>
