<svg id="Layer_1" data-name="Layer 1" xmlns="http://www.w3.org/2000/svg" width="0.42in" height="0.51in" viewBox="0 0 30.21 36.93">
  <title>linkIcon</title>
  <path d="M16.62,14.7V33.62L12,26.5a.77.77,0,0,0-.63-.34H2.87Zm.75,22.23a.83.83,0,0,0,.22,0,.77.77,0,0,0,.54-.74V13.08a.76.76,0,0,0-1.24-.6L.28,26.33a.8.8,0,0,0-.24.86.77.77,0,0,0,.71.51H10.92l5.82,8.89a.75.75,0,0,0,.63.34" style="fill: #005cb9"/>
  <path d="M17.37,7.69a.76.76,0,0,0,.76-.77V.77A.76.76,0,0,0,17.37,0a.75.75,0,0,0-.75.77V6.92a.75.75,0,0,0,.75.77" style="fill: #009ddc"/>
  <path d="M23.41,13.85h6.05a.77.77,0,0,0,0-1.54H23.41a.77.77,0,0,0,0,1.54" style="fill: #009ddc"/>
  <path d="M5.29,13.85h6a.77.77,0,0,0,0-1.54h-6a.77.77,0,0,0,0,1.54" style="fill: #009ddc"/>
  <path d="M21.64,9.5a.76.76,0,0,0,.54-.23l4.27-4.35a.77.77,0,0,0,0-1.09.75.75,0,0,0-1.07,0L21.11,8.18a.77.77,0,0,0,0,1.09.75.75,0,0,0,.53.23" style="fill: #005daa"/>
  <path d="M25.92,22.55a.74.74,0,0,0,.53-.22.77.77,0,0,0,0-1.09l-4.27-4.35a.75.75,0,0,0-1.07,0,.79.79,0,0,0,0,1.09l4.27,4.35a.75.75,0,0,0,.54.22" style="fill: #005daa"/>
  <path d="M13.1,9.5a.74.74,0,0,0,.53-.23.77.77,0,0,0,0-1.09L9.36,3.83a.75.75,0,0,0-1.07,0,.79.79,0,0,0,0,1.09l4.28,4.35a.74.74,0,0,0,.53.23" style="fill: #005daa"/>
</svg>
