<svg id="Layer_1" data-name="Layer 1" xmlns="http://www.w3.org/2000/svg" width="5in" height="3.25in" viewBox="0 0 360 234">
  <title>logo6</title>
  <rect x="9.83" y="11" width="340.67" height="211.36" style="fill: #fff;stroke: #00458d;stroke-width: 3.5729300000000004px"/>
  <line x1="97.09" y1="22.68" x2="97.09" y2="174.63" style="fill: none;stroke: #00458d"/>
  <line x1="23.19" y1="141.01" x2="86.34" y2="141.01" style="fill: none;stroke: #00458d"/>
  <line x1="110.5" y1="141.01" x2="337.99" y2="141.01" style="fill: none;stroke: #00458d;stroke-width: 0.9949509999999999px"/>
  <rect x="8.95" y="181.47" width="340.67" height="41.33" style="fill: #00458d"/>
  <g>
    <path d="M24.38,198.79a5.14,5.14,0,0,0,2.08-.47,2.6,2.6,0,0,0,1.29-1.4H30v12.54H27V200.3a5.22,5.22,0,0,1-2.65.41Z" style="fill: #fff"/>
    <path d="M42.23,203.24c0,2.85-.94,6.49-4.55,6.49A3.63,3.63,0,0,1,34.45,208a8.51,8.51,0,0,1-1.11-4.9,8.6,8.6,0,0,1,1-4.37,3.9,3.9,0,0,1,3.29-2C41.81,196.57,42.23,201.45,42.23,203.24Zm-6.15.47c0,1.44.22,3.73,1.72,3.73.66,0,1-.41,1.25-1a10.47,10.47,0,0,0,.41-3.13,8.29,8.29,0,0,0-.59-3.51A1.25,1.25,0,0,0,37.7,199C36.46,199.08,36.08,200.88,36.08,203.71Z" style="fill: #fff"/>
    <path d="M52.08,203.24c0,2.85-.95,6.49-4.55,6.49A3.64,3.64,0,0,1,44.29,208a8.51,8.51,0,0,1-1.11-4.9,8.6,8.6,0,0,1,1-4.37,3.91,3.91,0,0,1,3.29-2C51.65,196.57,52.08,201.45,52.08,203.24Zm-6.16.47c0,1.44.22,3.73,1.72,3.73.66,0,1-.41,1.26-1a10.82,10.82,0,0,0,.4-3.13,8.29,8.29,0,0,0-.59-3.51,1.25,1.25,0,0,0-1.17-.74C46.31,199.08,45.92,200.88,45.92,203.71Z" style="fill: #fff"/>
    <path d="M55.76,196.73c1.66,0,2.9,1.39,2.9,4.31a5.54,5.54,0,0,1-.87,3.2,2.48,2.48,0,0,1-2.14,1c-2.28,0-2.89-2.35-2.89-4.25a5.63,5.63,0,0,1,.69-3,2.57,2.57,0,0,1,1.81-1.26A4.21,4.21,0,0,1,55.76,196.73Zm-.8,2.19a7,7,0,0,0-.31,2.21c0,1.45.24,2.54,1.09,2.54s1-1.83,1-2.65-.08-2.79-1.15-2.68A.83.83,0,0,0,55,198.92Zm8.14-2.78,1.48.78-6.95,13.29-1.48-.75Zm4,6a5.88,5.88,0,0,1,.82,3.24,5.61,5.61,0,0,1-.87,3.2,2.39,2.39,0,0,1-2.09,1c-2.33,0-2.94-2.41-2.94-4.2,0-2.24.83-4.35,3-4.31A2.49,2.49,0,0,1,67.13,202.13Zm-2.86,1.11a6.79,6.79,0,0,0-.32,2.22c0,1.45.24,2.54,1.09,2.54s1-1.93,1-2.65c0-1.14-.17-2.79-1.17-2.68A.8.8,0,0,0,64.27,203.24Z" style="fill: #fff"/>
    <path d="M85,206.48a6.78,6.78,0,0,1-2,2.22,6.35,6.35,0,0,1-3.64,1.15c-3.46,0-6.26-2.52-6.26-6.94,0-3.87,2.63-6.92,6.33-6.92a6.12,6.12,0,0,1,3.81,1.3,6.45,6.45,0,0,1,1.7,2.09l-2.59,1.29a3.31,3.31,0,0,0-1-1.35,2.83,2.83,0,0,0-1.79-.65c-2.11,0-3.22,2-3.22,4.15,0,2.86,1.46,4.29,3.22,4.29a3.17,3.17,0,0,0,2.83-1.94Z" style="fill: #fff"/>
    <path d="M91.81,209.83c-4.14,0-6.49-3.18-6.49-7,0-3.53,2.24-6.88,6.44-6.88a7.11,7.11,0,0,1,2.38.39c4,1.39,4.26,5.74,4.26,6.62a7.12,7.12,0,0,1-2.48,5.46A6.32,6.32,0,0,1,91.81,209.83Zm2.26-10.16a3.17,3.17,0,0,0-2.29-1c-2,0-3.24,1.74-3.24,4.11,0,3.1,1.74,4.25,3.27,4.25S95,206,95.12,203.22A5.09,5.09,0,0,0,94.07,199.67Z" style="fill: #fff"/>
    <path d="M99.88,196.4h5.88c1.37,0,3.07,0,4.28,1.33a4.4,4.4,0,0,1,1,2.91,3.5,3.5,0,0,1-2.68,3.6l3,5.22h-3.6l-2.59-4.66h-2v4.66H99.88Zm3.28,2.44v3.53h2.7a1.72,1.72,0,0,0,2-1.79c0-1.66-1.21-1.72-1.89-1.74Z" style="fill: #fff"/>
    <path d="M113.2,196.4h5.25c2.15,0,4,0,5.2,1.65a5,5,0,0,1,.74,2.68,4.75,4.75,0,0,1-.44,2c-1.13,2.33-3.54,2.39-5.31,2.42h-2.16v4.28H113.2Zm3.28,2.4v4h2c1.22,0,2.7,0,2.7-2s-1.65-1.91-2.59-1.91Z" style="fill: #fff"/>
    <path d="M131.79,209.83c-4.14,0-6.49-3.18-6.49-7,0-3.53,2.24-6.88,6.44-6.88a7.15,7.15,0,0,1,2.38.39c4,1.39,4.26,5.74,4.26,6.62a7.12,7.12,0,0,1-2.48,5.46A6.32,6.32,0,0,1,131.79,209.83Zm2.26-10.16a3.21,3.21,0,0,0-2.3-1c-2,0-3.23,1.74-3.23,4.11,0,3.1,1.74,4.25,3.27,4.25s3.22-1.11,3.31-3.85A5.09,5.09,0,0,0,134.05,199.67Z" style="fill: #fff"/>
    <path d="M139.86,196.4h5.88c1.37,0,3.07,0,4.27,1.33a4.41,4.41,0,0,1,1,2.91,3.51,3.51,0,0,1-2.68,3.6l3,5.22h-3.6l-2.59-4.66h-2.06v4.66h-3.27Zm3.27,2.44v3.53h2.7a1.72,1.72,0,0,0,2-1.79c0-1.66-1.2-1.72-1.88-1.74Z" style="fill: #fff"/>
    <path d="M159.39,196.4l4.81,13.06h-3.47l-.65-2.09h-4.81l-.65,2.09h-3.47L156,196.4Zm-1.75,3.11c-.17.66-.35,1.35-.54,2-.28,1-.78,2.52-1.07,3.5h3.31Z" style="fill: #fff"/>
    <path d="M162.32,196.38h10.06V199H169v10.49h-3.27V199h-3.41Z" style="fill: #fff"/>
    <path d="M173.29,196.4H183v2.53h-6.4v2.37h6v2.48h-6v3.11h7v2.57H173.29Z" style="fill: #fff"/>
    <path d="M189.15,196.4h9.65v2.53h-6.4v2.37h6v2.48h-6v3.11h7v2.57H189.15Z" style="fill: #fff"/>
    <path d="M213.84,210.64a6.68,6.68,0,0,1-3.59-1.72,6.88,6.88,0,0,1-3.29.91,6.66,6.66,0,0,1-4.57-1.76,7.29,7.29,0,0,1-1.94-5.2c0-3.81,2.48-6.86,6.49-6.86,4.16,0,6.6,3.16,6.6,6.81a7.62,7.62,0,0,1-1.29,4.34,4,4,0,0,0,2.53,1.17Zm-10.13-7.79c0,2.63,1.35,4.22,3.32,4.22,2.21,0,3.28-1.94,3.28-4.2a5.44,5.44,0,0,0-.74-2.75,3.06,3.06,0,0,0-2.79-1.35C204.45,198.9,203.71,201.08,203.71,202.85Z" style="fill: #fff"/>
    <path d="M226.07,196.4v7.29a7,7,0,0,1-.76,3.7c-1.4,2.25-4.31,2.36-4.86,2.36a6.94,6.94,0,0,1-3-.7c-2.52-1.29-2.52-3.59-2.5-5.36V196.4h3.29v8.14a3.58,3.58,0,0,0,.24,1.63,2.37,2.37,0,0,0,2.11.88c2.22,0,2.22-1.51,2.24-2.53V196.4Z" style="fill: #fff"/>
    <path d="M234.18,196.4,239,209.46h-3.48l-.65-2.09h-4.81l-.64,2.09h-3.48l4.85-13.06Zm-1.76,3.11c-.17.66-.35,1.35-.54,2-.27,1-.77,2.52-1.07,3.5h3.31Z" style="fill: #fff"/>
    <path d="M239.75,196.38H243V206.7h5.11v2.76h-8.36Z" style="fill: #fff"/>
    <path d="M252.46,196.4v13.06H249.2V196.4Z" style="fill: #fff"/>
    <path d="M253.33,196.38h10.06V199H260v10.49h-3.27V199h-3.4Z" style="fill: #fff"/>
    <path d="M263.08,196.4h3.75l2.81,4.48a6.5,6.5,0,0,1,.54-1l2.24-3.5h3.71l-4.93,6.88v6.18H268v-6.09Z" style="fill: #fff"/>
    <path d="M284.54,196.4v13.06h-3.26V196.4Z" style="fill: #fff"/>
    <path d="M287.29,196.4h3.2l2.83,4.81c1,1.83,1.35,2.42,2,3.57l-.15-8.38h3.13v13.06h-3.2l-2.44-4.13a45.84,45.84,0,0,1-2.29-4.08l.09,8.21h-3.13Z" style="fill: #fff"/>
    <path d="M301,196.4h4.16c1.59,0,4,.06,5.66,1.54a6.43,6.43,0,0,1,1.87,4.88,8.92,8.92,0,0,1-.33,2.51c-1.21,4-4.85,4.11-6.22,4.13H301Zm3.29,2.76v7.67h1c1.74,0,4.14-.13,4.14-3.88a4.24,4.24,0,0,0-.68-2.63,3.47,3.47,0,0,0-3.14-1.16Z" style="fill: #fff"/>
    <path d="M314.73,196.4h9.65v2.53H318v2.37h6v2.48h-6v3.11h7v2.57H314.73Z" style="fill: #fff"/>
    <path d="M334.89,196.4h3.79l-4.31,6,5.09,7.09h-3.74l-3.35-4.94L329,209.46h-3.74l5.05-7.09-4.34-6h3.86l2.52,3.94Z" style="fill: #fff"/>
  </g>
  <g>
    <path d="M110.82,23.65h25.39c6.88,0,13.12.28,17.11,1.58,8.1,2.6,11.35,9,11.35,15.25a15.34,15.34,0,0,1-1.21,6.33c-3,6.69-9.3,8-12.83,8.74,4,.65,9.3,1.49,12.92,5.58A14.61,14.61,0,0,1,167.18,71a17.49,17.49,0,0,1-10.88,15.9c-4.93,2.14-10.23,2.42-17.76,2.42H110.82Zm15.63,12.28V49.6h12.37c3.72-.1,9.76-.28,9.76-7.07,0-6.32-5.49-6.6-8.65-6.6Zm0,25.57V77.41h11.44c5.48-.1,12.64-.28,12.64-7.82,0-7.9-6.51-8-9.85-8.09Z" style="fill: #00458d"/>
    <path d="M172.67,23.65h48.54V36.39H189V48.3h30V60.76H189V76.38H224.1V89.31H172.67Z" style="fill: #00458d"/>
    <path d="M239.63,69.59A20.56,20.56,0,0,0,246,74.71a27.08,27.08,0,0,0,12.65,3.16c6.51,0,12.09-3.07,12.09-7.63,0-5.2-6.61-6-11.44-6.69-3.63-.47-7.25-.93-10.79-1.68-4-.83-17.67-3.72-17.67-17.85,0-16.93,15.07-22,26.41-22,15.16,0,23.35,7.35,29,12.46l-12.09,8.65a30.2,30.2,0,0,0-6.51-5.3A23.64,23.64,0,0,0,256.92,35c-6.51,0-9.76,3.72-9.76,6.88,0,5,5.58,5.76,8.37,6.14,7,.83,16.37,2.6,20.09,3.9C283.15,54.71,287,60.57,287,68A21.84,21.84,0,0,1,281.76,82c-6,6.88-15.44,8.84-24.65,8.84-18.51,0-25.86-8.56-30-13.3Z" style="fill: #00458d"/>
    <path d="M287.52,23.56h50.59v13h-17V89.31H304.63V36.58H287.52Z" style="fill: #00458d"/>
  </g>
  <g>
    <path d="M110.31,106.36H118c3.14,0,5.92,0,7.59,2.4a7.36,7.36,0,0,1,1.08,3.91,6.83,6.83,0,0,1-.65,3c-1.65,3.4-5.15,3.48-7.75,3.54h-3.15v6.23h-4.78Zm4.78,3.51v5.77H118c1.78,0,3.94,0,3.94-3,0-2.78-2.4-2.78-3.78-2.78Z" style="fill: #00458d"/>
    <path d="M127.8,106.33h4.76v15.06H140v4H127.8Z" style="fill: #00458d"/>
    <path d="M151.51,106.36l7,19h-5.08l-.94-3h-7l-1,3h-5.07l7.07-19Zm-2.57,4.53c-.24,1-.51,2-.78,2.94-.4,1.43-1.13,3.67-1.57,5.11h4.84Z" style="fill: #00458d"/>
    <path d="M175.89,121.07a10.12,10.12,0,0,1-2.89,3.24,9.34,9.34,0,0,1-5.32,1.67c-5.05,0-9.12-3.67-9.12-10.12,0-5.64,3.83-10.1,9.23-10.1a9,9,0,0,1,5.56,1.89,9.71,9.71,0,0,1,2.48,3l-3.78,1.89a4.78,4.78,0,0,0-1.43-2,4.08,4.08,0,0,0-2.62-.94c-3.07,0-4.69,2.86-4.69,6,0,4.19,2.13,6.27,4.69,6.27s3.49-1.73,4.13-2.84Z" style="fill: #00458d"/>
    <path d="M176.81,106.36H190.9v3.69h-9.34v3.46h8.72v3.62h-8.72v4.53h10.18v3.75H176.81Z" style="fill: #00458d"/>
    <path d="M195.17,119.69a6.05,6.05,0,0,0,1.83,1.49,7.9,7.9,0,0,0,3.67.91c1.89,0,3.51-.89,3.51-2.21,0-1.51-1.91-1.76-3.32-1.94-1.05-.14-2.1-.27-3.13-.49s-5.13-1.08-5.13-5.18c0-4.91,4.38-6.37,7.67-6.37a11.64,11.64,0,0,1,8.42,3.61L205.18,112a8.33,8.33,0,0,0-1.89-1.54,6.8,6.8,0,0,0-3.1-.84c-1.89,0-2.84,1.08-2.84,2,0,1.45,1.62,1.67,2.43,1.78a36.52,36.52,0,0,1,5.83,1.13,4.72,4.72,0,0,1,3.3,4.67,6.38,6.38,0,0,1-1.51,4c-1.73,2-4.49,2.57-7.16,2.57-5.37,0-7.5-2.49-8.69-3.86Z" style="fill: #00458d"/>
    <path d="M215.17,106.33h14.69v3.78h-4.94v15.3h-4.78v-15.3h-5Z" style="fill: #00458d"/>
    <path d="M239.66,126c-6,0-9.47-4.64-9.47-10.15,0-5.15,3.26-10,9.39-10a10.44,10.44,0,0,1,3.48.57c5.83,2,6.21,8.37,6.21,9.66a10.35,10.35,0,0,1-3.62,8A9.19,9.19,0,0,1,239.66,126ZM243,111.13a4.65,4.65,0,0,0-3.34-1.4c-2.89,0-4.73,2.54-4.73,6,0,4.54,2.54,6.21,4.78,6.21s4.7-1.62,4.83-5.61A7.46,7.46,0,0,0,243,111.13Z" style="fill: #00458d"/>
    <path d="M270.79,106.36c.57,2,1.13,4.1,1.75,6.15a48.2,48.2,0,0,1,1.84,8c.57-3.78.7-4.42,1.57-8.31.4-1.94.83-3.89,1.24-5.8h4.72l-4.83,19h-4.91c-.6-2.1-1.16-4.21-1.79-6.29a61.84,61.84,0,0,1-1.64-6.31,54.39,54.39,0,0,1-1.62,6.18l-1.84,6.42h-4.91l-4.83-19h4.75c2,9,2.27,10,2.83,14.17.71-3.78.89-4.51,1.89-8.29l1.57-5.88Z" style="fill: #00458d"/>
    <path d="M291.47,126c-6,0-9.47-4.64-9.47-10.15,0-5.15,3.26-10,9.39-10a10.4,10.4,0,0,1,3.48.57c5.84,2,6.21,8.37,6.21,9.66a10.38,10.38,0,0,1-3.61,8A9.24,9.24,0,0,1,291.47,126Zm3.3-14.82a4.67,4.67,0,0,0-3.35-1.4c-2.89,0-4.72,2.54-4.72,6,0,4.54,2.53,6.21,4.77,6.21s4.7-1.62,4.83-5.61A7.4,7.4,0,0,0,294.77,111.13Z" style="fill: #00458d"/>
    <path d="M303,106.36h8.58c2,0,4.48,0,6.24,1.94a6.41,6.41,0,0,1,1.51,4.24c0,3.83-2.62,4.78-3.91,5.26l4.4,7.61H314.5l-3.78-6.8h-3v6.8H303Zm4.78,3.56v5.16h3.94c.67,0,2.86-.09,2.86-2.62s-1.75-2.51-2.75-2.54Z" style="fill: #00458d"/>
    <path d="M321,106.36h4.53v7.77l7.13-7.77h5.72l-6.75,7.07,7.29,12h-5.37l-5.1-8.63-2.92,3v5.58H321Z" style="fill: #00458d"/>
  </g>
  <path d="M340,215.52h-.74v-2.75h0l-1,2.75h-.44l-1-2.75h0v2.75h-.74v-3.4h1.2l.76,2,.77-2H340Zm-4.34-2.75h-1v2.75h-.82v-2.75h-1v-.65h2.9Z" style="fill: #fff"/>
  <g>
    <g>
      <g>
        <rect x="27.18" y="23.63" width="54.35" height="53.87" style="fill: #00458d"/>
        <rect x="38" y="37.29" width="32.7" height="10.04" style="fill: #ffdf1c"/>
        <rect x="38" y="53.64" width="32.7" height="10.04" style="fill: #ffdf1c"/>
      </g>
      <g>
        <path d="M32.92,90.66c.51,0,.57,0,.57-.41v-1c0-1.09-.06-1.15-.74-1.26l-.3,0c-.11-.08-.09-.35,0-.39.62,0,1.11,0,1.61,0s1,0,1.61,0c.13,0,.14.31,0,.39l-.3,0c-.68.11-.74.17-.74,1.26v3.53c0,1.09.06,1.17.74,1.27l.36,0c.11.08.1.35,0,.4-.66,0-1.18,0-1.67,0s-1,0-1.61,0a.27.27,0,0,1,0-.4l.3,0c.68-.12.74-.18.74-1.27V91.58c0-.4,0-.41-.57-.41H30.15c-.54,0-.57,0-.57.41v1.24c0,1.09.06,1.19.74,1.27l.43,0a.27.27,0,0,1,0,.4c-.72,0-1.24,0-1.73,0s-1,0-1.48,0c-.13,0-.14-.32,0-.4l.18,0c.66-.18.74-.18.74-1.27V89.29c0-1.09-.06-1.17-.74-1.26l-.36,0c-.11-.08-.1-.35,0-.39.68,0,1.16,0,1.67,0s1,0,1.55,0c.12,0,.14.31,0,.39l-.24,0c-.66.12-.74.17-.74,1.26v1c0,.41.06.41.57.41Z" style="fill: #00458d"/>
        <path d="M40.38,89.29c0-1.09-.08-1.12-.74-1.26l-.22,0c-.11-.08-.1-.35,0-.39.53,0,1,0,1.53,0s1,0,1.61,0c.12,0,.14.31,0,.39l-.3,0c-.68.11-.74.17-.74,1.26v2.22c0,1.58.52,2.65,2.05,2.65s2-1.07,2-2.63V90.06c0-1.57-.09-1.94-.77-2l-.33,0a.26.26,0,0,1,0-.39c.51,0,.87,0,1.33,0s.8,0,1.3,0a.26.26,0,0,1,0,.39l-.47,0c-.41,0-.54.47-.54,2v1.56c0,2-.93,3.08-2.93,3.08A3.13,3.13,0,0,1,41.06,94a3,3,0,0,1-.68-2.23Z" style="fill: #00458d"/>
        <path d="M54.68,91.7a9.37,9.37,0,0,0,.57,1,7.06,7.06,0,0,0,.65-1.1l.78-1.51a12.78,12.78,0,0,0,1.09-2.46c.35,0,.67,0,.92,0s.83,0,1.29,0c.14,0,.16.31.05.39l-.35,0c-.72.09-.76.39-.76,1.32,0,1.68,0,3,.08,4,0,.35,0,.73.52.78l.46,0a.27.27,0,0,1,0,.4c-.56,0-1.18,0-1.57,0s-1,0-1.39,0c-.11-.08-.13-.33,0-.4l.35,0c.51-.07.51-.19.51-.82V89.62c0-.19,0-.42-.05-.46a11,11,0,0,0-.68,1.2l-1,1.82c-.13.23-.95,1.87-1.12,2.38a.27.27,0,0,1-.3,0,15.76,15.76,0,0,0-.93-2.1l-1-2a6.46,6.46,0,0,0-.63-1.23,11.54,11.54,0,0,0-.09,1.58c0,.63,0,1.29,0,2.07s0,1.15.45,1.2l.52,0a.28.28,0,0,1,0,.4c-.41,0-.87,0-1.3,0s-.82,0-1.3,0a.26.26,0,0,1,0-.4l.33,0c.52-.08.56-.24.64-.79.13-.85.22-3.39.22-4.47,0-.5-.17-.74-.71-.8l-.37,0c-.1-.08-.11-.33,0-.39.42,0,.79,0,1.21,0s.65,0,1.15,0a5,5,0,0,0,.82,2.24Z" style="fill: #00458d"/>
        <path d="M65.72,92c-.36,0-.41,0-.54.37l-.36,1c-.18.51-.13.57.17.63l.43.08c.12.08.11.37,0,.4-.39,0-.8,0-1.25,0s-.82,0-1.1,0a.26.26,0,0,1,0-.4l.36-.08c.49-.11.66-.28,1-1l1.51-3.63a4.76,4.76,0,0,0,.41-1.32,1.38,1.38,0,0,0,.67-.6c.12,0,.22,0,.25.08s.31,1,.68,1.94l1.42,3.77c.19.52.33.72.9.84l.25,0c.14.08.11.37,0,.4-.41,0-.77,0-1.31,0s-1,0-1.42,0a.23.23,0,0,1,0-.4l.32,0c.41-.07.39-.16.2-.65l-.38-1c-.13-.36-.17-.37-.54-.37ZM67,91.53c.41,0,.46,0,.29-.49l-.49-1.34a3.21,3.21,0,0,0-.24-.57h0a3.78,3.78,0,0,0-.25.54l-.57,1.4c-.17.43-.14.46.21.46Z" style="fill: #00458d"/>
        <path d="M79.88,90.06c0-1.57-.1-2-.68-2l-.51,0a.26.26,0,0,1,0-.39c.59,0,1,0,1.41,0s.8,0,1.31,0a.27.27,0,0,1,0,.39L81,88c-.41,0-.53.47-.53,2v2.65c0,.32,0,1.6,0,1.83a.29.29,0,0,1-.33.14c-.17-.22-.49-.55-1.47-1.6L76.3,90.52c-.6-.63-1-1-1.22-1.22-.06,0-.06.18-.06.67v2.08c0,1.58.09,2,.68,2l.5,0a.25.25,0,0,1,0,.4c-.58,0-1,0-1.4,0s-.76,0-1.31,0a.27.27,0,0,1,0-.4l.47,0c.42,0,.54-.48.54-2V89.23c0-.52,0-.74-.33-1a1.78,1.78,0,0,0-.58-.22l-.24,0a.25.25,0,0,1,0-.39c.6,0,1,0,1.36,0a4.17,4.17,0,0,0,.63,0,9,9,0,0,0,1.55,1.94l1.48,1.53c.34.34,1.26,1.34,1.43,1.46s.1-.25.1-.63Z" style="fill: #00458d"/>
        <path d="M28.38,103.22c0-1,0-1.3-.38-1.35l-.44-.06c-.13,0-.16-.35,0-.39.87-.07,1.75-.1,2.62-.1,1.46,0,3.06.24,3.06,1.9a1.82,1.82,0,0,1-1.41,1.68.21.21,0,0,0,0,.24,9.56,9.56,0,0,0,2,2.52,1.42,1.42,0,0,0,.83.34.17.17,0,0,1,0,.25,2.44,2.44,0,0,1-.66.08,2.49,2.49,0,0,1-2.21-1.19c-.39-.5-.82-1.19-1.15-1.7a.72.72,0,0,0-.63-.25c-.41,0-.44,0-.44.25v1.12c0,1.09.06,1.17.74,1.26l.36.05c.11.08.1.34,0,.39-.66,0-1.18-.05-1.67-.05s-1,0-1.55.05a.23.23,0,0,1,0-.39l.24-.05c.68-.14.74-.17.74-1.26Zm1.2,1.15c0,.39,0,.39.79.39,1,0,1.56-.41,1.56-1.5a1.48,1.48,0,0,0-1.66-1.48c-.58,0-.69,0-.69.44Z" style="fill: #00458d"/>
        <path d="M38.49,103c0-1.09-.07-1.16-.74-1.27l-.3,0c-.11-.08-.1-.35,0-.4.61,0,1.1.05,1.61.05s1,0,1.61-.05a.27.27,0,0,1,0,.4l-.3,0c-.68.11-.74.18-.74,1.27v3.53c0,1.09.06,1.15.74,1.26l.3.05a.26.26,0,0,1,0,.39c-.6,0-1.13-.05-1.61-.05s-1,0-1.61.05c-.13-.05-.14-.31,0-.39l.3-.05c.67-.11.74-.17.74-1.26Z" style="fill: #00458d"/>
        <path d="M49.53,106.79c0-.72,0-.81-.73-.94l-.51-.09a.28.28,0,0,1,0-.4c.63,0,1.33,0,1.78,0s1,0,1.34,0a.28.28,0,0,1,0,.4l-.28.06c-.41.09-.48.19-.48.87v.44c0,.38,0,.61.26.72.06.05.06.19,0,.22s-.5.1-1,.18a8.22,8.22,0,0,1-1.57.19,4.57,4.57,0,0,1-3.4-1.17,3.45,3.45,0,0,1-1-2.4,3.53,3.53,0,0,1,1-2.48,4.61,4.61,0,0,1,3.49-1.24,10.25,10.25,0,0,1,2.11.31c0,.32.05,1,.14,1.79a.25.25,0,0,1-.41,0,2.06,2.06,0,0,0-2.24-1.65c-1.65,0-2.68,1.27-2.68,3.12A3,3,0,0,0,48.58,108c.83,0,1-.16,1-.79Z" style="fill: #00458d"/>
        <path d="M60.37,104.4c.51,0,.57,0,.57-.41v-1c0-1.09-.06-1.16-.74-1.27l-.3,0c-.11-.08-.1-.35,0-.4.62,0,1.11.05,1.61.05s1,0,1.61-.05c.13.05.14.32,0,.4l-.3,0c-.68.11-.74.18-.74,1.27v3.53c0,1.09.06,1.17.74,1.26l.36.05c.11.08.1.34,0,.39-.66,0-1.18-.05-1.67-.05s-1,0-1.61.05c-.13-.05-.14-.31,0-.39l.3-.05c.68-.11.74-.17.74-1.26v-1.25c0-.39,0-.41-.57-.41H57.6c-.54,0-.57,0-.57.41v1.25c0,1.09.06,1.18.74,1.26l.43.05a.26.26,0,0,1,0,.39c-.72,0-1.24-.05-1.73-.05s-1,0-1.48.05a.25.25,0,0,1,0-.39l.17-.05c.66-.17.74-.17.74-1.26V103c0-1.09-.06-1.17-.74-1.27l-.36,0c-.11-.08-.1-.35,0-.4.68,0,1.16.05,1.67.05s1,0,1.54-.05a.27.27,0,0,1,0,.4l-.24,0c-.66.13-.74.18-.74,1.27v1c0,.41.06.41.57.41Z" style="fill: #00458d"/>
        <path d="M69.15,102.24c0-.41,0-.41-.33-.41h-.49c-1,0-1.37.09-1.75,1.18a.26.26,0,0,1-.39-.08c.17-.68.35-1.47.43-1.86a.24.24,0,0,1,.28,0c0,.31.23.3.87.3h4.38c.59,0,.7,0,.82-.3a.22.22,0,0,1,.29.05A6.47,6.47,0,0,0,73.1,103a.25.25,0,0,1-.4,0c-.11-1-.52-1.15-1.46-1.15H70.7c-.3,0-.35,0-.35.41v4.32c0,1.09.07,1.18.75,1.26l.42.05c.11.08.1.34,0,.39-.65,0-1.25-.05-1.74-.05s-1.07,0-1.73.05c-.13-.05-.14-.31,0-.39l.42-.05c.68-.08.74-.17.74-1.26Z" style="fill: #00458d"/>
        <path d="M77.92,105a2.22,2.22,0,0,1-1.4-1.89c0-1.16.88-2,2.47-2a8.17,8.17,0,0,1,1.47.23,3.87,3.87,0,0,1,.22,1.55c-.05.13-.33.14-.41,0a1.57,1.57,0,0,0-1.47-1.35c-.93,0-1.27.53-1.27,1.07s.42.91,1,1.25l1,.5a2.25,2.25,0,0,1,1.28,2c0,1.23-1,2-2.57,2a3.21,3.21,0,0,1-1.82-.49,3.36,3.36,0,0,1-.33-1.63.25.25,0,0,1,.41,0A2.22,2.22,0,0,0,78.41,108c.8,0,1.32-.41,1.32-1.14,0-.5-.2-1-1.1-1.48Z" style="fill: #00458d"/>
        <path d="M31.9,115a9.29,9.29,0,0,0,.09,1.12.18.18,0,0,1-.27,0,1.29,1.29,0,0,0-1.41-1,1.75,1.75,0,0,0-1.74,2,1.92,1.92,0,0,0,1.83,2.13,1.6,1.6,0,0,0,1.47-1,.15.15,0,0,1,.26,0,2.85,2.85,0,0,1-.34,1.1,5.5,5.5,0,0,1-1.37.21,3.09,3.09,0,0,1-1.79-.47,2.14,2.14,0,0,1-1-1.81,2.24,2.24,0,0,1,.86-1.83,3.21,3.21,0,0,1,2-.59A7.92,7.92,0,0,1,31.9,115Z" style="fill: #00458d"/>
        <path d="M36.12,117.83c-.24,0-.27,0-.35.25l-.23.65c-.11.32-.08.36.11.4l.27.06c.09,0,.08.23,0,.25s-.51,0-.8,0-.53,0-.71,0a.16.16,0,0,1,0-.25l.23-.06c.32-.07.43-.18.63-.67l1-2.34a3.3,3.3,0,0,0,.26-.85.87.87,0,0,0,.43-.39c.08,0,.14,0,.16.05s.21.63.44,1.25l.92,2.43c.12.34.21.47.58.54l.16,0a.15.15,0,0,1,0,.25c-.26,0-.5,0-.84,0s-.67,0-.92,0-.11-.22,0-.25l.2,0c.27,0,.26-.1.13-.41l-.24-.66c-.08-.24-.11-.25-.35-.25Zm.8-.32c.27,0,.3,0,.19-.32l-.32-.87a1.92,1.92,0,0,0-.15-.36h0a1.89,1.89,0,0,0-.17.34l-.36.91c-.11.28-.09.3.13.3Z" style="fill: #00458d"/>
        <path d="M44.36,117.62a7,7,0,0,0,.36.62,4.58,4.58,0,0,0,.42-.71l.51-1a8.15,8.15,0,0,0,.7-1.59l.59,0,.84,0c.09,0,.1.2,0,.26l-.23,0c-.46.06-.48.25-.48.85,0,1.08,0,1.94,0,2.55,0,.23,0,.47.33.5l.3,0c.07,0,.07.21,0,.25l-1,0c-.3,0-.61,0-.9,0-.07,0-.08-.22,0-.25l.23,0c.32,0,.32-.12.32-.53v-2.35c0-.12,0-.27,0-.29a8,8,0,0,0-.43.77l-.63,1.17c-.08.16-.61,1.21-.72,1.54a.17.17,0,0,1-.19,0,10.25,10.25,0,0,0-.6-1.35l-.66-1.29a5,5,0,0,0-.41-.79,7.67,7.67,0,0,0-.06,1c0,.41,0,.83,0,1.33s0,.74.29.77l.34,0c.07,0,.06.21,0,.25-.27,0-.56,0-.84,0l-.84,0a.17.17,0,0,1,0-.25l.21,0c.34-.05.37-.15.42-.5.08-.55.14-2.19.14-2.88,0-.33-.11-.48-.46-.52l-.24,0c-.06-.06-.07-.22,0-.26.28,0,.51,0,.78,0a7.35,7.35,0,0,0,.75,0,3.15,3.15,0,0,0,.53,1.45Z" style="fill: #00458d"/>
        <path d="M51.38,116.18c0-.66,0-.81-.25-.85l-.3,0c-.1,0-.09-.23,0-.26.57,0,1.09-.06,1.62-.06a3.63,3.63,0,0,1,1.23.17,1.24,1.24,0,0,1,.82,1.19,1.19,1.19,0,0,1-.85,1.17,2.51,2.51,0,0,1-.92.15.14.14,0,0,1,0-.18,1.09,1.09,0,0,0,1-1.17,1,1,0,0,0-1.11-1c-.42,0-.42.06-.42.34v2.74c0,.7,0,.75.48.81l.23,0c.07,0,.06.22,0,.25l-1.08,0-1,0a.16.16,0,0,1,0-.25l.16,0c.44-.09.48-.11.48-.81Z" style="fill: #00458d"/>
        <path d="M58.28,117.83c-.23,0-.26,0-.34.25l-.24.65c-.11.32-.08.36.11.4l.28.06c.08,0,.07.23,0,.25-.26,0-.52,0-.81,0s-.53,0-.71,0a.16.16,0,0,1,0-.25l.24-.06c.31-.07.42-.18.63-.67l1-2.34a3.05,3.05,0,0,0,.27-.85,1,1,0,0,0,.43-.39c.08,0,.14,0,.16.05s.2.63.44,1.25l.91,2.43c.12.34.22.47.58.54l.16,0a.14.14,0,0,1,0,.25c-.27,0-.5,0-.85,0s-.66,0-.92,0c-.1,0-.11-.22,0-.25l.21,0c.26,0,.25-.1.13-.41l-.24-.66c-.09-.24-.12-.25-.35-.25Zm.81-.32c.26,0,.29,0,.18-.32l-.32-.87a1.92,1.92,0,0,0-.15-.36h0a2.27,2.27,0,0,0-.16.34l-.37.91c-.11.28-.09.3.13.3Z" style="fill: #00458d"/>
        <path d="M64.43,116.06c0-.7-.05-.74-.48-.81l-.2,0c-.07-.06-.06-.23,0-.26l1,0,1,0c.08,0,.09.2,0,.26l-.19,0c-.44.07-.48.11-.48.81v2.28c0,.7,0,.74.48.81l.19,0c.07,0,.06.22,0,.25l-1,0-1,0c-.08,0-.09-.2,0-.25l.2,0c.43-.07.48-.11.48-.81Z" style="fill: #00458d"/>
        <path d="M72.06,118.49c0-.47,0-.53-.47-.61l-.33-.06a.17.17,0,0,1,0-.25l1.15,0c.29,0,.62,0,.87,0a.18.18,0,0,1,0,.25l-.18,0c-.27.06-.31.12-.31.56v.29c0,.24,0,.39.16.46s0,.13,0,.15-.32.06-.61.11a5.5,5.5,0,0,1-1,.12,2.93,2.93,0,0,1-2.18-.75,2.22,2.22,0,0,1-.63-1.55,2.27,2.27,0,0,1,.64-1.6,2.94,2.94,0,0,1,2.25-.8,6.49,6.49,0,0,1,1.36.2c0,.21,0,.61.09,1.15a.16.16,0,0,1-.26,0,1.34,1.34,0,0,0-1.45-1.07,1.78,1.78,0,0,0-1.73,2,1.92,1.92,0,0,0,2,2.09c.54,0,.61-.1.61-.5Z" style="fill: #00458d"/>
        <path d="M80,116.56c0-1-.06-1.27-.44-1.31l-.32,0a.18.18,0,0,1,0-.26l.9,0c.3,0,.52,0,.85,0a.18.18,0,0,1,0,.26l-.31,0c-.26,0-.34.3-.34,1.31v1.71c0,.2,0,1,0,1.18a.2.2,0,0,1-.22.09c-.11-.14-.31-.35-.94-1l-1.55-1.65c-.39-.4-.65-.67-.78-.78s0,.11,0,.43v1.34c0,1,.06,1.28.43,1.31l.33,0a.16.16,0,0,1,0,.25l-.91,0c-.29,0-.48,0-.84,0a.17.17,0,0,1,0-.25l.3,0c.27,0,.35-.3.35-1.31V116c0-.34,0-.48-.21-.63a1.34,1.34,0,0,0-.38-.14l-.15,0c-.07-.07-.07-.22,0-.26.38,0,.66,0,.87,0a2.54,2.54,0,0,0,.41,0,5.58,5.58,0,0,0,1,1.25l.95,1c.23.22.82.86.93,1s.06-.17.06-.41Z" style="fill: #00458d"/>
      </g>
    </g>
    <path d="M30.06,128.45H29.8c0-.44-.05-.48-.26-.48h-.43v1c0,.35,0,.39.44.39v.21H28.06v-.21c.34,0,.38,0,.38-.39v-2.26c0-.34-.05-.39-.38-.39v-.21h2.28l.16.81h-.27c-.13-.51-.18-.55-.43-.55h-.52c-.15,0-.17,0-.17.23v1.09h.43c.2,0,.26-.07.26-.47h.26Z" style="fill: #00458d"/>
    <path d="M34.75,129.66a1.64,1.64,0,0,1-1.26-.46,1.87,1.87,0,0,1-.44-1.34,1.79,1.79,0,0,1,.53-1.41,1.71,1.71,0,0,1,1.17-.39,1.76,1.76,0,0,1,1.19.39,1.83,1.83,0,0,1,.52,1.41A1.91,1.91,0,0,1,36,129.2a1.69,1.69,0,0,1-1.28.46Zm0-3.36a.84.84,0,0,0-.69.3,2,2,0,0,0-.3,1.26,2.15,2.15,0,0,0,.29,1.24.91.91,0,0,0,1.4,0,2.15,2.15,0,0,0,.29-1.24,2,2,0,0,0-.29-1.26.88.88,0,0,0-.7-.3Z" style="fill: #00458d"/>
    <path d="M41.75,126.73c0-.35,0-.39-.34-.39v-.21h1v.21c-.3,0-.34,0-.34.39v1.69a1.26,1.26,0,0,1-.3.92,1.21,1.21,0,0,1-.92.32,1.57,1.57,0,0,1-1-.27,1.14,1.14,0,0,1-.34-1v-1.67c0-.34,0-.39-.36-.39v-.21h1.4v.21c-.33,0-.35,0-.35.39v1.63a1.1,1.1,0,0,0,.21.78.77.77,0,0,0,.6.22.75.75,0,0,0,.61-.25,1.09,1.09,0,0,0,.19-.73Z" style="fill: #00458d"/>
    <path d="M47.62,128.75h0v-2c0-.34,0-.39-.38-.39v-.21h1v.21c-.31,0-.36,0-.36.39v2.91H47.5l-1.89-2.91h0V129c0,.34,0,.39.37.39v.21h-1v-.21c.34,0,.38,0,.38-.39v-2.26c0-.35,0-.39-.38-.39v-.21h1Z" style="fill: #00458d"/>
    <path d="M50.86,129.38c.37,0,.4,0,.4-.39v-2.26c0-.34,0-.39-.4-.39v-.21h1.63a1.79,1.79,0,0,1,1.39.44,1.7,1.7,0,0,1,.46,1.24,1.86,1.86,0,0,1-.42,1.28,2,2,0,0,1-1.57.5H50.86Zm1.08-.33c0,.25,0,.29.2.29h.24a1.14,1.14,0,0,0,.94-.38,1.67,1.67,0,0,0,.31-1.08,1.79,1.79,0,0,0-.3-1.14,1,1,0,0,0-.87-.36h-.32c-.17,0-.2,0-.2.26Z" style="fill: #00458d"/>
    <path d="M57.61,128.55l-.13.48c-.08.3-.07.35.18.35v.21h-.8v-.21c.15,0,.21,0,.28-.26l.93-3.06h.42l1,3c.1.28.15.33.31.33v.21H58.6v-.21c.26,0,.27-.08.2-.3l-.16-.53Zm.5-1.7h0l-.41,1.44h.87Z" style="fill: #00458d"/>
    <path d="M63.66,129c0,.35,0,.39.44.39v.21H62.54v-.21c.41,0,.44,0,.44-.39V126.4H62.5c-.29,0-.34,0-.44.59H61.8l.12-.86h2.8l.12.86h-.26c-.1-.57-.15-.59-.44-.59h-.48Z" style="fill: #00458d"/>
    <path d="M67.72,126.73c0-.34,0-.39-.42-.39v-.21h1.52v.21c-.39,0-.42,0-.42.39V129c0,.34,0,.39.42.39v.21H67.3v-.21c.39,0,.42,0,.42-.39Z" style="fill: #00458d"/>
    <path d="M73.13,129.66a1.64,1.64,0,0,1-1.26-.46,1.87,1.87,0,0,1-.44-1.34,1.79,1.79,0,0,1,.53-1.41,2,2,0,0,1,2.35,0,1.79,1.79,0,0,1,.53,1.41,1.91,1.91,0,0,1-.43,1.34,1.69,1.69,0,0,1-1.28.46Zm0-3.36a.84.84,0,0,0-.69.3,2,2,0,0,0-.3,1.26,2.15,2.15,0,0,0,.29,1.24.91.91,0,0,0,1.4,0,2.15,2.15,0,0,0,.29-1.24,2,2,0,0,0-.29-1.26.88.88,0,0,0-.7-.3Z" style="fill: #00458d"/>
    <path d="M80.14,128.75h0v-2c0-.34-.05-.39-.38-.39v-.21h1v.21c-.31,0-.36,0-.36.39v2.91H80l-1.89-2.91h0V129c0,.34,0,.39.37.39v.21h-1v-.21c.34,0,.38,0,.38-.39v-2.26c0-.35,0-.39-.38-.39v-.21h1Z" style="fill: #00458d"/>
    <path d="M81.76,132h-.32v-1.2h0L81,132h-.19l-.43-1.2h0V132h-.32v-1.48h.52l.33.87.33-.87h.52Zm-1.88-1.2h-.45V132h-.36v-1.2h-.45v-.28h1.26Z" style="fill: #00458d"/>
  </g>
  <g>
    <path d="M25.48,160a8,8,0,0,1,.45-3.39c1.34-3.55,4.73-3.75,6.21-3.75a8,8,0,0,1,3.53.76,5.39,5.39,0,0,1,2.91,5c0,2.74-1.31,5.23-5.26,8.45-.67.56-1.37,1.07-2.07,1.6l7.39-.11v3.58h-13v-3.3c1.43-1.12,2.43-1.91,4.39-3.59,2.24-2,3.87-3.55,3.87-6.55,0-.75,0-2.6-1.93-2.6a2.08,2.08,0,0,0-1.66.75,3,3,0,0,0-.42,1.88,14.18,14.18,0,0,0,.12,1.48Z" style="fill: #00458d"/>
    <path d="M55.75,162.74c0,4.32-1.43,9.83-6.89,9.83a5.54,5.54,0,0,1-4.9-2.63c-1.12-1.63-1.68-3.95-1.68-7.42a13,13,0,0,1,1.52-6.61,5.89,5.89,0,0,1,5-3C55.11,152.64,55.75,160,55.75,162.74Zm-9.32.7c0,2.19.33,5.66,2.6,5.66,1,0,1.54-.62,1.91-1.57a15.93,15.93,0,0,0,.61-4.73,12.53,12.53,0,0,0-.89-5.32,1.88,1.88,0,0,0-1.77-1.12C47,156.44,46.43,159.16,46.43,163.44Z" style="fill: #00458d"/>
    <path d="M58.62,156a7.66,7.66,0,0,0,3.14-.69,4.05,4.05,0,0,0,2-2.13h3.41v19h-4.5V158.29c-1,.45-1.29.56-4,.62Z" style="fill: #00458d"/>
    <path d="M84.92,166.76c0,4.34-3.81,5.71-6.72,5.71-4.25,0-6.72-2.38-6.72-5.74a4.55,4.55,0,0,1,3.39-4.53,4.72,4.72,0,0,1-2.6-4.29c0-2.32,1.59-5.07,6-5.07,3.3,0,5.88,1.8,5.88,5.21a4.12,4.12,0,0,1-2.69,4.12A4.68,4.68,0,0,1,84.92,166.76Zm-6.69-3.11c-1.12,0-2.21.9-2.21,2.72,0,2,1.09,2.74,2.15,2.74,1.35,0,2.22-.84,2.22-2.74C80.39,165.11,79.8,163.65,78.23,163.65Zm.06-7.5c-1.29,0-1.85,1-1.85,2.21,0,1.43.61,2.41,1.82,2.41s1.76-1,1.76-2.16C80,157.13,79.38,156.15,78.29,156.15Z" style="fill: #00458d"/>
  </g>
  <g>
    <path d="M113.8,161.64v10.63h-3.91V161.64h-2.1v-2.41h2.1v-1.91c0-2.31,1.71-3.38,4-3.38a16.89,16.89,0,0,1,2.35.23v3h-.72c-1.63,0-1.76.33-1.76,1.3v.79h2.63v2.41Z" style="fill: #00458d"/>
    <path d="M124.28,172.68c-3.48,0-7.16-1.89-7.16-7.16,0-3.37,2-7,7-7,5.6,0,7.32,3.88,7.32,7.08C131.47,169.92,128.75,172.68,124.28,172.68Zm-.15-11c-1.49,0-3,1.12-3,3.91,0,2.22,1,4,3.25,4s3.15-1.82,3.15-3.81C127.48,162.89,126.27,161.64,124.13,161.64Z" style="fill: #00458d"/>
    <path d="M137.5,158.93v1.38a5,5,0,0,1,1.56-1,7,7,0,0,1,2.3-.54v3.48l-1.3.21c-2.07.33-2.46.87-2.46,2.3v7.51h-3.91V158.93Z" style="fill: #00458d"/>
    <path d="M150.4,172.27V154.22h4.51v14.25H162v3.8Z" style="fill: #00458d"/>
    <path d="M176.55,159.85a4.69,4.69,0,0,0-4.22-2.56c-2.89,0-4.71,2.15-4.71,5.83,0,2.15.64,5.93,4.74,5.93,1.63,0,3.78-.79,3.93-3.37h-4v-3.43h7.85v10h-3.52v-1.66a7.43,7.43,0,0,1-5.32,2.07c-5.6,0-8.13-4.85-8.13-9.43,0-4.3,2.5-9.64,8.89-9.64a9.77,9.77,0,0,1,8,4.17Z" style="fill: #00458d"/>
    <path d="M183.33,154.22h8.41c4.76,0,6.39,2.1,6.39,4.73a4.14,4.14,0,0,1-3.86,4c1.74.16,4.56,1,4.56,4.22,0,3.33-3,5.06-6.65,5.06h-8.85Zm7.7,7.14c1,0,2.68-.08,2.68-2s-1.51-1.81-2.38-1.81h-3.71v3.76Zm-.26,7.64c1.46,0,3.48-.08,3.48-2.15s-1.82-2.22-2.74-2.22h-3.89V169Z" style="fill: #00458d"/>
    <path d="M209.09,157.78v14.49h-4.55V157.78h-4.71v-3.56h13.94v3.56Z" style="fill: #00458d"/>
    <path d="M233.15,173.91a9.41,9.41,0,0,1-5-2.38,9.14,9.14,0,0,1-4.55,1.26c-5.73,0-9-4.22-9-9.62,0-5.09,3.4-9.49,9-9.49,4.91,0,9.1,3.48,9.1,9.44a10.73,10.73,0,0,1-1.79,6,5.56,5.56,0,0,0,3.51,1.61ZM223.74,169c3.86,0,4.53-4.12,4.53-5.78,0-3.48-1.87-5.71-4.6-5.71-3.33,0-4.53,2.77-4.53,5.68C219.14,165.88,220.37,169,223.74,169Z" style="fill: #00458d"/>
    <path d="M242.65,154.22H256v3.5h-8.85V161h8.26v3.42h-8.26v4.3h9.64v3.55H242.65Z" style="fill: #00458d"/>
    <path d="M267.13,176.88v-5.55a5.22,5.22,0,0,1-3.45,1.23c-2.82,0-5.53-2.15-5.53-6.81,0-3.45,1.77-7.18,5.78-7.18a4.78,4.78,0,0,1,3.56,1.51v-1.15h3.58v17.95Zm-2.33-15.5c-2,0-2.76,2.3-2.76,4.17,0,2.51,1.28,4.09,2.68,4.09s2.69-1.38,2.69-4.17C267.41,162.84,266.23,161.38,264.8,161.38Z" style="fill: #00458d"/>
    <path d="M282.1,172.27V171a4.91,4.91,0,0,1-3.89,1.64c-2.94,0-4.19-1.49-4.19-4.78v-8.95h4v8.56a1.73,1.73,0,0,0,1.9,2,2,2,0,0,0,2.25-2.2v-8.33H286v13.34Z" style="fill: #00458d"/>
    <path d="M296.91,172.27v-1.2a6.51,6.51,0,0,1-4.09,1.56,4,4,0,0,1-4.38-4.06,4.31,4.31,0,0,1,2.82-3.84,32.61,32.61,0,0,1,5.27-1.23v-.74a1.41,1.41,0,0,0-1.51-1.61c-1.67,0-2,1-2.07,1.56H289c0-2.94,2.71-4.14,5.62-4.14,2.3,0,5.76.61,5.76,3.83v7.8a3.25,3.25,0,0,0,.38,2.07ZM294,166.73c-1.35.43-1.68,1.07-1.68,1.66a1.42,1.42,0,0,0,1.5,1.35c1.54,0,2.72-1.38,2.72-3.27v-.59Z" style="fill: #00458d"/>
    <path d="M303.46,172.27V154.22h3.91v18.05Z" style="fill: #00458d"/>
    <path d="M310.4,157.26v-3h3.91v3Zm0,15V158.93h3.91v13.34Z" style="fill: #00458d"/>
    <path d="M321.85,161.66v6.4c0,.89.41,1.09,1,1.09l1.38,0v3a12.23,12.23,0,0,1-2.48.21c-2.15,0-3.81-.67-3.81-3.79v-7h-2v-2.41h2v-4.16h3.88v4.19h2.61v2.4Z" style="fill: #00458d"/>
    <path d="M338,158.93l-4.7,14.42a6.26,6.26,0,0,1-1.31,2.5,3.29,3.29,0,0,1-2.78,1h-2.84v-3.15h1.69c1.07,0,1.33-.51,1.33-1a4.11,4.11,0,0,0-.28-1.28l-3.89-12.55h4.19l2.2,9.56,2.2-9.56Z" style="fill: #00458d"/>
  </g>
</svg>
