<svg id="Layer_2" data-name="Layer 2" xmlns="http://www.w3.org/2000/svg" width="1in" height="0.88in" viewBox="0 0 72 63">
  <title>logo7</title>
  <g>
    <path d="M11.2,26.16l-.54,1.1c-.26.53-.44.57-.87.57-.69,0-1.78-.13-3.21-.13a3.47,3.47,0,0,0-.84.11.23.23,0,0,1-.23-.24c0-.24.28-.4.57-.74L7,25.64c1.47-1.87,2.23-3.22,2.23-4.22A1.34,1.34,0,0,0,7.77,20c-1,0-1.57.82-1.82.82a.17.17,0,0,1-.17-.18c0-.13.26-.46.78-.91A2.77,2.77,0,0,1,8.43,19,1.93,1.93,0,0,1,10.63,21c0,.93-.71,1.9-1.83,3.29a10.18,10.18,0,0,0-1.51,2c0,.1.17.2.45.2h1.4a2.13,2.13,0,0,0,1.4-.36c.36-.28.43-.6.68-.6a.17.17,0,0,1,.16.19A1.68,1.68,0,0,1,11.2,26.16Z" style="fill: #606a70"/>
    <path d="M17.64,26.42A2.9,2.9,0,0,1,15.18,28c-1.6,0-2.87-1.56-2.87-4.06,0-3,1.51-4.9,3.24-4.9,1.57,0,3,1.61,3,4A6.69,6.69,0,0,1,17.64,26.42Zm-.89-5.09c-.51-1.07-1.15-1.61-1.85-1.61-.91,0-1.45.87-1.45,2.61,0,2.76,1.16,4.8,2.37,4.8,1,0,1.65-.9,1.65-2.59A8,8,0,0,0,16.75,21.33Z" style="fill: #606a70"/>
    <path d="M23.46,27.83c-.27,0-.94-.08-2-.08-.89,0-1.44.09-1.62.09s-.14-.09-.14-.23c0-.31.28-.18.83-.35S21,26.79,21,26V21.14c0-.47-.07-.68-.42-.68a5.07,5.07,0,0,0-.75.16.25.25,0,0,1-.21-.23c0-.35.69-.31,1.61-.64.61-.22.91-.68,1.12-.68s.11.08.11.22a7.86,7.86,0,0,0-.09,1.11V26c0,.82,0,1.35,1.17,1.35.19,0,.25,0,.25.21S23.69,27.83,23.46,27.83Z" style="fill: #606a70"/>
    <path d="M27.22,28c-1.74,0-2.89-1-2.89-2.37a2.24,2.24,0,0,1,1.54-2.18,2.06,2.06,0,0,1-1.13-1.86,2.57,2.57,0,0,1,2.8-2.47c1.53,0,2.49.87,2.49,2,0,.87-.53,1.46-1.58,1.73a2.44,2.44,0,0,1,1.95,2.52C30.4,26.89,29.18,28,27.22,28Zm.59-3.7a8.57,8.57,0,0,0-1.55-.55c-.32,0-.89.5-.89,1.51a2.08,2.08,0,0,0,2,2.27c1.22,0,1.92-.6,1.92-1.57S28.82,24.66,27.81,24.27Zm-.5-4.71c-1,0-1.59.56-1.59,1.33a1.26,1.26,0,0,0,.76,1.1,3,3,0,0,0,1.36.52,1.21,1.21,0,0,0,1.25-1.33A1.63,1.63,0,0,0,27.31,19.56Z" style="fill: #606a70"/>
    <path d="M10.29,38.33c-.27,0-.94-.08-2-.08-.9,0-1.45.09-1.63.09s-.14-.09-.14-.23c0-.31.29-.18.84-.35s.48-.47.48-1.23V31.64c0-.47-.07-.68-.42-.68a5.6,5.6,0,0,0-.76.16.25.25,0,0,1-.2-.23c0-.35.69-.31,1.61-.64.6-.22.91-.68,1.12-.68s.11.08.11.22a7.86,7.86,0,0,0-.09,1.11v5.63c0,.82,0,1.35,1.17,1.35.19,0,.25,0,.25.21S10.52,38.33,10.29,38.33Z" style="fill: #02a3d5"/>
    <path d="M16.78,36.92a2.87,2.87,0,0,1-2.46,1.57c-1.6,0-2.87-1.56-2.87-4.06,0-3,1.51-4.9,3.24-4.9s3,1.61,3,4A6.69,6.69,0,0,1,16.78,36.92Zm-.88-5.09c-.52-1.07-1.16-1.61-1.86-1.61-.91,0-1.45.87-1.45,2.61,0,2.76,1.17,4.8,2.37,4.8,1,0,1.65-.9,1.65-2.59A8.15,8.15,0,0,0,15.9,31.83Z" style="fill: #02a3d5"/>
    <path d="M23.8,36.92a2.87,2.87,0,0,1-2.45,1.57c-1.6,0-2.87-1.56-2.87-4.06,0-3,1.51-4.9,3.24-4.9,1.57,0,3,1.61,3,4A6.6,6.6,0,0,1,23.8,36.92Zm-.88-5.09c-.51-1.07-1.15-1.61-1.85-1.61-.91,0-1.45.87-1.45,2.61,0,2.76,1.16,4.8,2.37,4.8,1,0,1.65-.9,1.65-2.59A8,8,0,0,0,22.92,31.83Z" style="fill: #02a3d5"/>
    <path d="M39.58,38.39c-.24,0-.73-.1-1.49-.1s-1.25.11-1.48.11-.31-.07-.31-.27.25-.21.51-.38a1,1,0,0,0,.4-1v-.27l-.17-4c0-.21-.06-.31-.1-.31s-.14.12-.26.33L34,38c-.08.17-.13.3-.29.3s-.2-.12-.29-.31l-2.49-5.51c-.07-.14-.1-.24-.18-.24s-.1.11-.12.33l-.11,3.18v.55c0,.71.1,1.18.6,1.43.35.17.7,0,.7.4,0,.19-.1.23-.3.23s-.69-.09-1.27-.09-1.13.1-1.34.1-.2-.13-.2-.28.51-.27.8-.54.34-.82.38-1.78L30,32.55c0-.14,0-.34,0-.61a2.36,2.36,0,0,0-.53-1.9c-.39-.33-.75-.14-.75-.48,0-.17.07-.23.25-.23a9.33,9.33,0,0,0,1.06.06c.47,0,.76,0,.82,0s.26.08.38.36l2.83,6.08q.08.18.18.18t.18-.15l3.09-6.25a.31.31,0,0,1,.34-.21c.12,0,.31.06.59.06.44,0,.77-.09,1-.09s.25.05.25.26-.2.09-.74.39c-.31.16-.41.51-.41,1.09v.11l.14,5.14c0,.65.08,1.06.47,1.35s.75.09.75.42S39.83,38.39,39.58,38.39Z" style="fill: #02a3d5"/>
    <path d="M43,38.5a2.74,2.74,0,0,1-2.87-2.8,3,3,0,0,1,3-3,2.74,2.74,0,0,1,3,2.81A2.93,2.93,0,0,1,43,38.5ZM43,33.18c-.94,0-1.5.64-1.5,1.8,0,1.76.77,3.08,1.88,3.08.87,0,1.46-.62,1.46-1.76C44.81,34.47,44,33.18,43,33.18Z" style="fill: #02a3d5"/>
    <path d="M48.63,38.47a9.32,9.32,0,0,1-1.49-.23c-.14,0-.15-.07-.15-.22v-.51c0-.53,0-.82,0-.9s0-.23.19-.23.14.26.41.75a1.5,1.5,0,0,0,1.32,1,.84.84,0,0,0,.92-.88c0-.61-.44-.78-1.28-1.09-1-.37-1.51-.76-1.51-1.69s.76-1.67,2-1.67,1.36.29,1.38.56l0,.65v.2a.17.17,0,0,1-.16.14c-.2,0-.21-.23-.39-.49a1.42,1.42,0,0,0-1.2-.65c-.49,0-.78.23-.78.65s.36.68,1,.93c1.11.43,1.8.68,1.8,1.85S50,38.47,48.63,38.47Z" style="fill: #02a3d5"/>
    <path d="M53.41,38.49c-1.11,0-1.3-.56-1.3-1.75v-3c0-.18-.06-.28-.21-.28h-.27c-.15,0-.25,0-.25-.15s.42-.4,1.14-1.21c.5-.56.6-.89.8-.89s.14.06.14.21v1.21c0,.2,0,.24.25.24h.66c.32,0,.49-.26.58-.26a.13.13,0,0,1,.11.14c0,.41-.19.71-.65.71h-.72c-.19,0-.23.06-.23.23v2.89c0,.73.08,1.1.63,1.1a3.32,3.32,0,0,0,.88-.23c.12,0,.2.07.2.16C55.17,37.92,54.38,38.49,53.41,38.49Z" style="fill: #02a3d5"/>
    <path d="M8.56,49a8.63,8.63,0,0,1-2-.45c-.48-.08-.45,0-.55-.47l-.41-1.85,0-.23c0-.19,0-.29.25-.29s.2.38.64,1.19a2.65,2.65,0,0,0,2.17,1.51,1.65,1.65,0,0,0,1.75-1.69c0-1-.74-1.27-2.1-1.86-1.56-.66-2.53-1.07-2.53-2.74A2.42,2.42,0,0,1,8.28,39.7c1,0,1.46.43,1.92.43s.41-.16.54-.16.23.09.23.28,0,.28,0,.45c0,.59.18,1.2.18,1.65,0,.19,0,.27-.19.27-.37,0-.16-.37-.65-1.21a2.47,2.47,0,0,0-2.07-1.17,1.31,1.31,0,0,0-1.42,1.25c0,.79.59,1.19,1.8,1.65a6.07,6.07,0,0,1,2,1,2.92,2.92,0,0,1-2,4.88Z" style="fill: #02a3d5"/>
    <path d="M17.8,48.66a7.73,7.73,0,0,0-1,.2c-.19,0-.28-.09-.28-.21V48.5l0-.52a2.82,2.82,0,0,1-1.94.94c-1.24,0-1.84-.88-1.84-2.63V44.93c0-.51,0-.84-.25-1s-.59,0-.59-.34c0-.14.07-.22.24-.22h.22A11.26,11.26,0,0,0,14,43.22c.12,0,.18.05.18.22s-.06.6-.06,1.39V46.1c0,1.27.25,2,1.25,2,.77,0,1.17-.37,1.17-1.1V44.79c0-.43,0-.71-.24-.87s-.61,0-.61-.34c0-.14.08-.22.25-.22h.23a11.26,11.26,0,0,0,1.62-.15c.12,0,.17.05.17.22s-.05.52-.05,1.39v2.42c0,.44,0,.68.24.83s.63,0,.63.28S18.48,48.63,17.8,48.66Z" style="fill: #02a3d5"/>
    <path d="M21.14,49a9,9,0,0,1-1.48-.23c-.15,0-.16-.07-.16-.22V48c0-.53,0-.82,0-.9s0-.23.2-.23.14.26.41.75a1.49,1.49,0,0,0,1.31,1,.85.85,0,0,0,.93-.88c0-.61-.45-.78-1.28-1.09-1-.37-1.52-.76-1.52-1.69s.76-1.67,2-1.67,1.36.29,1.38.56l.05.65v.2a.17.17,0,0,1-.16.14c-.19,0-.21-.23-.39-.49a1.42,1.42,0,0,0-1.2-.65c-.49,0-.78.23-.78.65s.36.68,1,.93c1.11.43,1.8.68,1.8,1.85S22.51,49,21.14,49Z" style="fill: #02a3d5"/>
    <path d="M25.92,49c-1.11,0-1.3-.56-1.3-1.75v-3c0-.18-.05-.28-.21-.28h-.27c-.15,0-.25,0-.25-.15s.42-.4,1.14-1.21c.5-.56.6-.89.8-.89s.15.06.15.21v1.21c0,.2,0,.24.24.24h.66c.32,0,.49-.26.58-.26a.13.13,0,0,1,.12.14.62.62,0,0,1-.66.71h-.71c-.2,0-.23.06-.23.23v2.89c0,.73.07,1.1.62,1.1s.72-.23.89-.23a.17.17,0,0,1,.19.16C27.68,48.42,26.9,49,25.92,49Z" style="fill: #02a3d5"/>
    <path d="M32.54,48.89c-.35,0-.65-.24-.88-.7a3.85,3.85,0,0,1-2.24.78,1.08,1.08,0,0,1-1.14-1.23c0-1.19,1-1.73,3.2-2.13,0-.09,0-.18,0-.25,0-1.11-.39-1.63-1.28-1.63-.5,0-.62.17-.62.59v.1c0,.26-.05.62-.95.62-.23,0-.28-.09-.28-.34,0-.66.86-1.41,2.26-1.41a2.5,2.5,0,0,1,1.9.67,2.18,2.18,0,0,1,.31,1.51v1.9c0,.64,0,.75.43.75l.24,0a.17.17,0,0,1,.18.15C33.68,48.48,33.09,48.89,32.54,48.89Zm-1.05-1.7V46c-1.25.24-1.83.65-1.83,1.44,0,.5.26.75.79.75.93,0,1-.36,1-.89Z" style="fill: #02a3d5"/>
    <path d="M36.94,48.86c-.21,0-.6-.1-1.14-.1a8.26,8.26,0,0,0-1.31.1.21.21,0,0,1-.24-.2c0-.33.67-.14.67-1.12V45.07c0-.43,0-.67-.24-.83s-.63,0-.63-.28.33-.18,1.06-.43,1-.45,1-.45.16.09.16.27,0,.37,0,.93v2.95c0,.51,0,.78.28,1s.65.12.65.44C37.22,48.79,37.12,48.86,36.94,48.86ZM35.57,42.1c-.27,0-.85-.71-.85-.94a2.19,2.19,0,0,1,.88-1.09,2,2,0,0,1,.83,1A1.79,1.79,0,0,1,35.57,42.1Z" style="fill: #02a3d5"/>
    <path d="M44.27,48.86c-.21,0-.6-.1-1.15-.1a8.87,8.87,0,0,0-1.3.1.21.21,0,0,1-.24-.2c0-.22.29-.23.48-.44a.9.9,0,0,0,.2-.7V46.06c0-1.28-.27-2-1.25-2-.77,0-1.17.35-1.17,1.08v2.07c0,.52,0,.78.34,1s.77.12.77.44c0,.12-.11.21-.33.21s-.7-.1-1.26-.1a8.64,8.64,0,0,0-1.32.1.21.21,0,0,1-.23-.2c0-.33.66-.14.66-1.12V45.07c0-.43,0-.67-.24-.83s-.63,0-.63-.28.32-.18,1.08-.45,1-.43,1.06-.43a.14.14,0,0,1,.14.13v.21l0,.75a2.82,2.82,0,0,1,1.94-.94c1.24,0,1.84.87,1.84,2.63v1.37c0,.51,0,.78.29,1s.65.13.65.41S44.47,48.86,44.27,48.86Z" style="fill: #02a3d5"/>
    <path d="M49.35,48.89c-.36,0-.66-.24-.89-.7a3.85,3.85,0,0,1-2.24.78,1.08,1.08,0,0,1-1.14-1.23c0-1.19,1-1.73,3.2-2.13,0-.09,0-.18,0-.25,0-1.11-.4-1.63-1.28-1.63-.5,0-.63.17-.63.59v.1c0,.26,0,.62-1,.62-.23,0-.28-.09-.28-.34,0-.66.86-1.41,2.26-1.41a2.5,2.5,0,0,1,1.9.67,2.18,2.18,0,0,1,.31,1.51v1.9c0,.64,0,.75.43.75l.25,0a.16.16,0,0,1,.17.15C50.48,48.48,49.9,48.89,49.35,48.89Zm-1.05-1.7V46c-1.26.24-1.84.65-1.84,1.44,0,.5.26.75.79.75.93,0,1-.36,1-.89Z" style="fill: #02a3d5"/>
    <path d="M53.77,48.93A3.33,3.33,0,0,1,52,48.38c-.21,0-.35.54-.6.54-.09,0-.17-.07-.17-.13s.08-.53.08-1.08V41.22c0-.36,0-.58-.22-.72s-.56,0-.56-.26.29-.2,1-.44.93-.46,1.08-.46.17.09.17.24-.08.92-.08,2.06v2.42a2.77,2.77,0,0,1,1.85-.83,2.24,2.24,0,0,1,2.19,2.48A3,3,0,0,1,53.77,48.93Zm0-4.83a1.36,1.36,0,0,0-1.1.5v2.57c0,.79.69,1.25,1.54,1.25s1.43-.68,1.43-1.87C55.61,45.11,54.81,44.1,53.74,44.1Z" style="fill: #02a3d5"/>
    <path d="M59.91,48.86c-.22,0-.6-.1-1.15-.1a8.92,8.92,0,0,0-1.31.1c-.14,0-.23-.07-.23-.19,0-.32.69-.22.69-1.11V41.22c0-.36,0-.58-.21-.72s-.57,0-.57-.26.36-.21,1-.44.83-.46,1-.46.18.09.18.24-.08.92-.08,2.06v5.59c0,.51,0,.78.28,1s.64.13.64.41S60.1,48.86,59.91,48.86Z" style="fill: #02a3d5"/>
    <path d="M63,49a2.46,2.46,0,0,1-2.42-2.65c0-1.78,1.09-3.06,2.61-3.06a2.34,2.34,0,0,1,2.44,2.1c0,.32-.06.33-.49.33H62.33c-.42,0-.5,0-.5.35a2.05,2.05,0,0,0,1.94,2.07c1,0,1.41-.66,1.7-.66.1,0,.14.06.14.18C65.61,48,64.51,49,63,49Zm0-5.34a1.28,1.28,0,0,0-1.16,1.41c0,.22.09.28.47.28h.9c1,0,1-.09,1-.41A1.23,1.23,0,0,0,63,43.65Z" style="fill: #02a3d5"/>
    <path d="M12.87,58.28a4.52,4.52,0,0,1-3.23,1.26,4.11,4.11,0,0,1-4.22-4.43A5.32,5.32,0,0,1,6.63,51.7,4.16,4.16,0,0,1,9.9,50.17a6.86,6.86,0,0,1,2.85.78c.28,0,.2-.39.44-.39s.22.19.23.57c.06,1.17.2,1.88.2,2.1s-.07.23-.18.23c-.28,0-.25-.36-.8-1.14A3.68,3.68,0,0,0,9.7,50.68C8.21,50.68,7,52.05,7,54.35A5.11,5.11,0,0,0,7.71,57a3,3,0,0,0,2.62,1.61,3.8,3.8,0,0,0,2.45-1c.4-.36.54-.71.77-.71s.17.07.17.19A2.46,2.46,0,0,1,12.87,58.28Z" style="fill: #02a3d5"/>
    <path d="M17.37,59.5a2.74,2.74,0,0,1-2.87-2.8,3,3,0,0,1,2.95-3,2.74,2.74,0,0,1,3,2.81A2.94,2.94,0,0,1,17.37,59.5Zm-.07-5.32c-.93,0-1.5.64-1.5,1.8,0,1.76.77,3.08,1.88,3.08.88,0,1.46-.62,1.46-1.76C19.14,55.47,18.35,54.18,17.3,54.18Z" style="fill: #02a3d5"/>
    <path d="M30.76,59.36c-.22,0-.6-.1-1.15-.1a8,8,0,0,0-1.27.1.21.21,0,0,1-.22-.2c0-.21.26-.23.44-.44a1.05,1.05,0,0,0,.19-.76v-1.4c0-1.29-.26-2-1.13-2a.94.94,0,0,0-1.05,1.08v2.07c0,.51,0,.78.28,1s.64.13.64.41-.09.24-.28.24-.6-.1-1.1-.1a7.21,7.21,0,0,0-1.23.1.19.19,0,0,1-.19-.2c0-.21.24-.23.4-.44a1.18,1.18,0,0,0,.18-.76v-1.4c0-1.29-.27-2-1.14-2a.94.94,0,0,0-1.05,1.08v2.07c0,.51,0,.78.29,1s.69.12.69.44c0,.14-.1.21-.29.21s-.64-.1-1.18-.1a8.64,8.64,0,0,0-1.32.1.21.21,0,0,1-.23-.2c0-.33.67-.14.67-1.12V55.57c0-.43,0-.67-.25-.83s-.62,0-.62-.28.32-.18,1.07-.45.95-.43,1.06-.43a.15.15,0,0,1,.15.13v.21l0,.75a2.6,2.6,0,0,1,1.81-.94,1.56,1.56,0,0,1,1.5,1.09,2.92,2.92,0,0,1,2-1.09c1.2,0,1.73.9,1.73,2.63v1.37c0,.51.05.79.29,1s.64.13.64.41S31,59.36,30.76,59.36Z" style="fill: #02a3d5"/>
    <path d="M34.33,59.47a2.29,2.29,0,0,1-1.11-.32v1.4a.79.79,0,0,0,.34.73c.34.21.7.08.7.39,0,.15-.12.24-.34.24a13.17,13.17,0,0,0-1.47-.08,6.66,6.66,0,0,0-1,.08.19.19,0,0,1-.19-.2c0-.21.23-.25.39-.39s.18-.37.18-.69V55.54c0-.45,0-.68-.27-.81s-.53,0-.53-.26.3-.23.82-.39c.76-.25,1.1-.5,1.22-.5s.16.09.16.25l0,.8a2.78,2.78,0,0,1,1.93-.89c1.26,0,2.06.93,2.06,2.53A3,3,0,0,1,34.33,59.47Zm.07-4.87a1.61,1.61,0,0,0-1.18.5v3.06a1.81,1.81,0,0,0,1.47.77c.9,0,1.43-.65,1.43-1.87C36.12,55.59,35.37,54.6,34.4,54.6Z" style="fill: #02a3d5"/>
    <path d="M42.23,59.39c-.36,0-.65-.24-.88-.7a3.88,3.88,0,0,1-2.24.78A1.08,1.08,0,0,1,38,58.24c0-1.19,1-1.73,3.2-2.13,0-.09,0-.18,0-.25,0-1.11-.4-1.63-1.28-1.63-.5,0-.63.17-.63.59v.1c0,.26-.05.62-.94.62-.23,0-.28-.09-.28-.34,0-.66.85-1.41,2.26-1.41a2.5,2.5,0,0,1,1.9.67,2.24,2.24,0,0,1,.3,1.51v1.9c0,.64,0,.75.44.75l.24,0a.17.17,0,0,1,.18.15C43.37,59,42.78,59.39,42.23,59.39Zm-1-1.7V56.5c-1.25.24-1.83.65-1.83,1.44q0,.75.78.75c.94,0,1-.36,1-.89Z" style="fill: #02a3d5"/>
    <path d="M50.41,59.36c-.22,0-.6-.1-1.15-.1a8.92,8.92,0,0,0-1.31.1.21.21,0,0,1-.23-.2c0-.22.28-.23.47-.44a.91.91,0,0,0,.21-.7V56.56c0-1.28-.27-2-1.26-2-.77,0-1.16.35-1.16,1.08v2.07c0,.52,0,.78.33,1s.77.12.77.44c0,.12-.1.21-.32.21s-.71-.1-1.27-.1a8.64,8.64,0,0,0-1.32.1.21.21,0,0,1-.23-.2c0-.33.67-.14.67-1.12V55.57c0-.43,0-.67-.24-.83s-.63,0-.63-.28.32-.18,1.07-.45.95-.43,1.07-.43a.15.15,0,0,1,.14.13v.21l0,.75a2.78,2.78,0,0,1,1.93-.94c1.24,0,1.84.87,1.84,2.63v1.37c0,.51,0,.78.3,1s.64.13.64.41S50.6,59.36,50.41,59.36Z" style="fill: #02a3d5"/>
    <path d="M53.94,59.36c-.22,0-.6-.1-1.14-.1a8.64,8.64,0,0,0-1.32.1.21.21,0,0,1-.23-.2c0-.33.67-.14.67-1.12V55.57c0-.43,0-.67-.24-.83s-.63,0-.63-.28.33-.18,1.06-.43,1-.45,1-.45.16.09.16.27,0,.37,0,.93v2.95c0,.51,0,.78.28,1s.65.12.65.44C54.22,59.29,54.12,59.36,53.94,59.36ZM52.57,52.6c-.27,0-.86-.71-.86-.94a2.15,2.15,0,0,1,.89-1.09,2,2,0,0,1,.83,1A1.79,1.79,0,0,1,52.57,52.6Z" style="fill: #02a3d5"/>
    <path d="M57,59.49a2.46,2.46,0,0,1-2.42-2.65c0-1.78,1.09-3.06,2.61-3.06a2.34,2.34,0,0,1,2.44,2.1c0,.32-.06.33-.5.33H56.35c-.42,0-.5,0-.5.35a2,2,0,0,0,1.94,2.07c1,0,1.4-.66,1.7-.66.1,0,.14.06.14.18C59.63,58.49,58.53,59.49,57,59.49Zm0-5.34a1.28,1.28,0,0,0-1.16,1.41c0,.22.09.28.47.28h.9c1,0,1-.09,1-.41A1.23,1.23,0,0,0,57,54.15Z" style="fill: #02a3d5"/>
    <path d="M62.18,59.47a9,9,0,0,1-1.49-.23c-.14,0-.15-.07-.15-.22v-.51c0-.53,0-.82,0-.9s0-.23.19-.23.14.26.41.75a1.5,1.5,0,0,0,1.32,1,.84.84,0,0,0,.92-.88c0-.61-.45-.78-1.28-1.09-1-.37-1.51-.76-1.51-1.69s.75-1.67,2-1.67,1.36.29,1.39.56L64,55v.2a.18.18,0,0,1-.17.14c-.19,0-.2-.23-.38-.49a1.45,1.45,0,0,0-1.21-.65c-.48,0-.78.23-.78.65s.36.68,1,.93c1.11.43,1.81.68,1.81,1.85S63.54,59.47,62.18,59.47Z" style="fill: #02a3d5"/>
  </g>
  <g>
    <rect width="71.83" height="17.14" style="fill: #00539b"/>
    <rect width="72" height="63" style="fill: none;stroke: #6d6e71;stroke-miterlimit: 10;stroke-width: 0.4px"/>
    <g>
      <path d="M48.52,11.37c-.14,1.26-.46,1.22-.84,1.33s-.22.3,0,.27.71-.08,1.14-.08c.6,0,1.14.06,1.44.06.12,0,.28-.17,0-.25s-1.19,0-1.27-1.51c-.06-1.1,0-4.87,0-4.87,0-.26,0-.3.09-.3s.17.14.25.25l5.25,6.67c.55.64.58.45.57-.2,0-2.1,0-7.9,0-7.9,0-1.14,1-.67,1-1,0-.08,0-.11-.12-.11-.29,0-1.14.09-1.56.09s-.62-.06-1-.06a.12.12,0,0,0-.13.13c0,.37,1.32-.24,1.27,1.64l0,5.46c0,.1,0,.31-.19,0L49.07,4.05c-.07-.09-.18-.3-.31-.3l-1,0c-.2,0-.38-.06-.58-.06S47,3.8,47,3.88c.07.46,1.5-.09,1.53,2.07C48.55,6,48.58,10.83,48.52,11.37Z" style="fill: #fff"/>
      <path d="M57.06,2.67a3,3,0,0,0-.53.34.26.26,0,0,0-.06.36,2.57,2.57,0,0,1-.15,2.75c-.12.19-.32.25-.22.33s.46-.15.61-.3A3,3,0,0,0,57.36,3C57.26,2.75,57.22,2.62,57.06,2.67Z" style="fill: #fff"/>
      <path d="M58.14,12.26A3,3,0,0,0,60.2,13c2.91,0,3.6-1.58,3.6-2.68,0-3.47-4.94-2.2-4.94-4.65a1.73,1.73,0,0,1,2-1.72,2.53,2.53,0,0,1,2.36,1.62c0,.11.1.38.24.38s.1-.1.09-.2l-.19-1.83c0-.14-.07-.18-.15-.18s-.2.23-.44.18a3.52,3.52,0,0,0-1.81-.4A2.52,2.52,0,0,0,58.18,6c0,3.28,4.79,2,4.82,4.45a1.91,1.91,0,0,1-2.08,2.07,2.77,2.77,0,0,1-2.7-2c-.06-.27-.09-.42-.23-.4s-.11.17-.06.44A7.15,7.15,0,0,1,58.14,12.26Z" style="fill: #fff"/>
      <path d="M42.69,13.22a4.68,4.68,0,0,0,5-5,4.6,4.6,0,0,0-4.72-4.73,4.7,4.7,0,0,0-4.8,4.8C38.12,11.16,39.86,13.22,42.69,13.22ZM42.6,4.07c2.55,0,4.08,2.28,4.08,4.71s-1.6,4-3.51,4c-2.59,0-4.1-2.35-4.1-4.82A3.58,3.58,0,0,1,42.6,4.07Z" style="fill: #fff"/>
      <path d="M34.93,8.21A2.57,2.57,0,0,0,36.53,6c0-2.53-2.73-2.4-2.92-2.4-.62,0-1.42.12-2.1.12s-.86-.07-1.08-.07-.23.08-.23.16c0,.45,1.37-.22,1.33,1.19v6.68c0,1-.69.91-.84,1s-.13.22-.05.22c.45,0,.95-.05,1.4-.05a11.45,11.45,0,0,1,1.69.08c.17,0,.25-.17.06-.24s-1.3.06-1.32-1V8.91c0-.13-.07-.36.31-.37,1.19,0,1.17-.11,1.37.2,0,0,2.28,2.8,3.52,4A6.15,6.15,0,0,0,41,14.47c1.16.06,1.79-.14,1.79-.29,0-.32-1,.57-3.78-1.65a31.68,31.68,0,0,1-4-4.25S34.93,8.22,34.93,8.21ZM32.47,4.5c0-.51.28-.46.71-.46A2.09,2.09,0,0,1,35.5,6.22,1.7,1.7,0,0,1,33.76,8.1c-.56,0-1.29.06-1.29-.19Z" style="fill: #fff"/>
      <path d="M27.28,8.19A2.7,2.7,0,0,0,29,6c0-2.54-2.93-2.35-3.13-2.35-.62,0-1.34.11-2,.11s-.82-.06-1-.06-.25.07-.24.15c0,.37,1.32-.22,1.29,1.19v6.68c0,1-.71,1-1,1s.13.29.2.29c.46,0,.82-.12,1.28-.12a10.86,10.86,0,0,1,1.79.13c.28,0,.33-.17.06-.23-.43-.1-1.4-.09-1.41-1.18V8.91c0-.13-.07-.37.31-.37,1.36,0,1.25-.06,1.69.67l1.5,2.32c.46.75.93,1.42,1.81,1.42.11,0,.94,0,.93-.14s.16-.25-.2-.19-.84-.17-1.4-1.1L27.27,8.27S27.28,8.19,27.28,8.19ZM24.84,4.51c0-.51.26-.46.69-.48a2.05,2.05,0,0,1,2.41,2.15,1.68,1.68,0,0,1-1.67,1.91c-.57,0-1.43.08-1.43-.17Z" style="fill: #fff"/>
      <path d="M20.86,10.84c.12.36.23.78.34,1.06.24.59-.38.81-.62.78s-.15.34.2.27a6.23,6.23,0,0,1,1.06-.09c.49,0,.91.09,1.41.09.08,0,.33-.21.12-.27a1.1,1.1,0,0,1-.9-.52,10,10,0,0,1-.64-1.52l-2.6-7c0-.1-.12-.49-.25-.49s-.2.21-.91,1.91L15.17,12c-.31.77-1,.52-1,.8,0,.08.12.17.19.17.31,0,.67-.08,1-.08a6.87,6.87,0,0,1,1.13.08c.3.05.37-.2.1-.27s-.85-.23-.78-.82a9.43,9.43,0,0,1,.8-2.19.66.66,0,0,1,.64-.38H20c.34,0,.41.13.53.44ZM18.58,5.11c.07-.16.13-.16.19,0L20,8.54c.06.18.07.27-.2.27H17.3c-.16,0-.24-.05-.16-.24Z" style="fill: #fff"/>
      <path d="M9.13,11.44c0,1-.44,1.14-.58,1.18s-.48,0-.46.24.32.1.38.1c.59,0,1,0,1.55,0,.43,0,1.51.12,2,.12a2.78,2.78,0,0,0,3-2.87C15,8.31,13,8,13,7.84a2.45,2.45,0,0,0,1.26-1.93c0-1-.62-2.24-2.87-2.24-1,0-1.23.1-1.74.1s-1.23-.12-1.48-.12-.23.17,0,.28S9.13,4,9.13,5Zm.91-3c0-.12-.06-.3.92-.3,2.94,0,3,1.74,3,2.58s-.25,2-2.21,2S10,12.33,10,11.39Zm0-3.3c0-.76-.06-1,.75-1,1.53,0,2.62.82,2.59,2.24,0,.77-.52,1.44-2.21,1.41C10,7.74,10,7.67,10,7.25Z" style="fill: #fff"/>
    </g>
  </g>
</svg>
