<?xml version="1.0" encoding="iso-8859-1"?>
<!-- Generator: Adobe Illustrator 22.0.1, SVG Export Plug-In . SVG Version: 6.00 Build 0)  -->
<svg version="1.1" id="Layer_1" xmlns="http://www.w3.org/2000/svg" xmlns:xlink="http://www.w3.org/1999/xlink" x="0px" y="0px"
	 viewBox="0 0 593.002 681.504" enable-background="new 0 0 593.002 681.504" xml:space="preserve">
<path fill="#808080" d="M25.391,568.704c-12.131,0-12.131,0-12.131,0c0-11.012,0-11.012,0-11.012c11.571,0,11.571,0,11.571,0
	c4.564,0,6.809,1.825,6.809,5.541C31.64,565.758,30.516,568.704,25.391,568.704z M25.462,591.786c-12.203,0-12.203,0-12.203,0
	c0-14.661,0-14.661,0-14.661c12.203,0,12.203,0,12.203,0c5.125,0,7.79,2.454,7.79,7.294
	C33.252,589.045,30.376,591.786,25.462,591.786z M43.351,583.995c0-7.081-4.909-10.238-7.574-11.435
	c3.505-1.893,5.821-5.89,5.821-10.17c0-8.56-5.821-13.399-15.996-13.399c-21.956,0-21.956,0-21.956,0c0,51.492,0,51.492,0,51.492
	c21.745,0,21.745,0,21.745,0C36.618,600.483,43.351,594.311,43.351,583.995z"/>
<path fill="#808080" d="M64.12,601.323c3.717,0,6.733-1.332,9.046-3.856c0,3.016,0,3.016,0,3.016c9.263,0,9.263,0,9.263,0
	c0-37.67,0-37.67,0-37.67c-9.263,0-9.263,0-9.263,0c0,20.834,0,20.834,0,20.834c0,6.102-2.385,9.121-7.014,9.121
	c-4.698,0-6.947-2.88-6.947-9.192c0-20.763,0-20.763,0-20.763c-9.257,0-9.257,0-9.257,0c0,21.323,0,21.323,0,21.323
	C49.949,590.517,51.772,601.323,64.12,601.323z"/>
<path fill="#808080" d="M191.8,579.718c0-6.03,2.453-9.19,7.082-9.19c4.629,0,6.802,2.949,6.802,9.262c0,20.693,0,20.693,0,20.693
	c9.263,0,9.263,0,9.263,0c0-21.254,0-21.254,0-21.254c0-11.227-4.698-17.188-13.749-17.188c-3.857,0-7.153,1.4-9.398,3.996
	c0-3.225,0-3.225,0-3.225c-9.333,0-9.333,0-9.333,0c0,37.67,0,37.67,0,37.67c9.333,0,9.333,0,9.333,0V579.718z"/>
<rect x="90.775" y="562.813" fill="#808080" width="9.333" height="37.67"/>
<polygon fill="#808080" points="108.383,600.483 117.714,600.483 117.714,547.167 108.383,551.867 "/>
<path fill="#808080" d="M140.723,592.698c-3.225,0-7.082-1.969-7.082-11.647c0-8.703,3.786-10.523,6.942-10.523
	c3.513,0,5.546,2.101,6.667,3.721c0,14.797,0,14.797,0,14.797C145.849,590.8,144.165,592.698,140.723,592.698z M147.25,565.477
	c-2.243-2.315-5.189-3.436-8.351-3.436c-9.115,0-14.732,7.362-14.732,19.221c0,12.559,5.406,20.061,14.523,20.061
	c3.161,0,6.037-1.191,8.56-3.716c0,2.876,0,2.876,0,2.876c9.258,0,9.258,0,9.258,0c0-53.316,0-53.316,0-53.316
	c-9.258,4.7-9.258,4.7-9.258,4.7V565.477z"/>
<path fill="#808080" d="M348.236,570.528c3.438,0,7.021,2.81,7.021,10.523c0,7.854-2.181,11.647-6.81,11.647
	c-3.436,0-5.75-2.32-6.802-3.513c0-14.796,0-14.796,0-14.796C343.187,572,345.572,570.528,348.236,570.528z M349.991,562.042
	c-2.876,0-5.96,1.262-8.346,3.505c0-17.397,0-17.397,0-17.397c-9.263,4.63-9.263,4.63-9.263,4.63c0,47.704,0,47.704,0,47.704
	c9.263,0,9.263,0,9.263,0c0-2.805,0-2.805,0-2.805c2.314,2.385,5.259,3.645,8.556,3.645c9.262,0,14.592-7.293,14.592-20.061
	C364.793,569.404,359.115,562.042,349.991,562.042z"/>
<path fill="#808080" d="M244.342,574.249c0,14.727,0,14.727,0,14.727c-1.473,1.964-3.294,3.722-6.598,3.722
	c-3.226,0-7.082-2.037-7.082-11.647c0-8.703,3.788-10.523,7.013-10.523C241.117,570.528,243.221,572.628,244.342,574.249z
	 M244.342,565.477c-2.242-2.244-5.189-3.436-8.351-3.436c-9.115,0-14.803,7.362-14.803,19.221c0,12.559,5.477,19.992,14.594,19.992
	c3.301,0,6.175-1.191,8.56-3.576c0,0.841,0,0.841,0,0.841c0,4.137,0,9.747-12.067,9.958c-0.42,0-0.42,0-0.42,0
	c3.296,7.37,3.296,7.37,3.296,7.37c0.209-0.071,0.209-0.071,0.209-0.071c12.279-0.141,18.24-6.318,18.24-18.801
	c0-34.162,0-34.162,0-34.162c-9.257,0-9.257,0-9.257,0V565.477z"/>
<path fill="#808080" d="M285.1,587.993c0-3.365,2.461-5.33,6.458-5.33c2.734,0,5.118,0.563,7.294,1.824c0,5.189,0,5.189,0,5.189
	c-1.193,1.965-3.858,3.934-7.294,3.934C287.561,593.61,285.1,591.5,285.1,587.993z M282.504,572.069
	c2.945-1.613,5.757-2.594,9.613-2.594c4.418,0,6.734,1.893,6.734,5.406c0,2.523,0,2.523,0,2.523
	c-2.176-1.053-5.261-1.752-7.995-1.752c-6.949,0-15.015,3.225-15.015,12.34c0,9.826,7.505,13.33,13.963,13.33
	c2.665,0,6.522-1.051,9.047-3.925c0,3.085,0,3.085,0,3.085c9.262,0,9.262,0,9.262,0c0-25.395,0-25.395,0-25.395
	c0-8.138-5.685-13.047-15.155-13.047c-5.189,0-9.752,1.191-14.1,3.646L282.504,572.069z"/>
<path fill="#808080" d="M378.965,577.754c0.211-4.635,3.087-7.79,7.02-7.79c4.91,0,6.871,3.934,7.082,7.79H378.965z
	 M394.611,589.537c-1.685,1.544-3.998,3.161-7.435,3.161c-1.831,0-7.86-0.561-8.353-8.211c23.085,0,23.085,0,23.085,0
	c0.069-0.771,0.14-1.824,0.14-2.805c0-11.927-6.246-19.641-15.784-19.641c-9.825,0-16.835,8.274-16.835,19.641
	c0,11.928,6.941,19.641,17.747,19.641c4.978,0,9.747-1.963,13.324-5.96L394.611,589.537z"/>
<path fill="#808080" d="M468.693,577.754c0.212-4.635,3.086-7.79,7.014-7.79c4.909,0,6.871,3.934,7.083,7.79H468.693z
	 M484.338,589.537c-1.688,1.544-4.002,3.161-7.438,3.161c-1.824,0-7.855-0.561-8.347-8.211c23.079,0,23.079,0,23.079,0
	c0.068-0.771,0.068-1.824,0.068-2.805c0-11.927-6.171-19.641-15.785-19.641c-9.751,0-16.836,8.274-16.836,19.641
	c0,11.928,7.014,19.641,17.82,19.641c4.978,0,9.682-1.963,13.328-5.96L484.338,589.537z"/>
<path fill="#808080" d="M446.24,571.579c8.494,0,8.494,0,8.494,0c0-8.766,0-8.766,0-8.766c-8.494,0-8.494,0-8.494,0
	c0-14.242,0-14.242,0-14.242c-9.256,4.629-9.256,4.629-9.256,4.629c0,9.613,0,9.613,0,9.613c-5.828,0-5.828,0-5.828,0
	c0,8.766,0,8.766,0,8.766c5.828,0,5.828,0,5.828,0c0,18.17,0,18.17,0,18.17c0,5.334,2.595,11.574,10.028,11.574
	c2.946,0,5.618-0.631,7.79-1.752c1.121-8.771,1.121-8.771,1.121-8.771c-1.752,0.91-3.715,1.688-5.615,1.688
	c-2.805,0-4.068-1.688-4.068-5.057V571.579z"/>
<path fill="#808080" d="M429.336,590.8c-1.756,0.91-3.648,1.688-5.611,1.688c-2.807,0-4.066-1.76-4.066-5.057
	c0-15.854,0-15.854,0-15.854c7.922,0,7.922,0,7.922,0c0-8.766,0-8.766,0-8.766c-7.922,0-7.922,0-7.922,0c0-14.242,0-14.242,0-14.242
	c-9.264,4.629-9.264,4.629-9.264,4.629c0,9.613,0,9.613,0,9.613c-5.82,0-5.82,0-5.82,0c0,8.766,0,8.766,0,8.766
	c5.82,0,5.82,0,5.82,0c0,18.17,0,18.17,0,18.17c0,5.334,2.594,11.574,10.035,11.574c2.944,0,5.609-0.631,7.783-1.752L429.336,590.8z
	"/>
<path fill="#808080" d="M522.359,564.286c-1.824-1.332-4.558-2.244-7.014-2.244c-3.301,0-6.105,1.262-8.35,4.066
	c0-3.295,0-3.295,0-3.295c-9.264,0-9.264,0-9.264,0c0,37.67,0,37.67,0,37.67c9.264,0,9.264,0,9.264,0c0-20.413,0-20.413,0-20.413
	c0-5.96,2.173-8.773,6.732-8.773c2.179,0,4.283,0.843,6.176,2.111L522.359,564.286z"/>
<rect x="90.775" y="548.151" fill="#808080" width="9.333" height="9.334"/>
<rect x="164.789" y="562.813" fill="#808080" width="9.333" height="37.67"/>
<rect x="164.858" y="548.151" fill="#808080" width="9.262" height="9.334"/>
<path fill="#808080" d="M422.883,658.425c-3.225,0-7.018-1.964-7.018-11.646c0-8.626,3.722-10.518,6.95-10.518
	c3.434,0,5.538,2.103,6.662,3.717c0,14.732,0,14.732,0,14.732C428.072,656.533,426.389,658.425,422.883,658.425z M429.477,631.211
	c-2.245-2.321-5.19-3.441-8.347-3.441c-9.122,0-14.803,7.367-14.803,19.289c0,12.488,5.469,19.998,14.591,19.998
	c3.088,0,6.033-1.197,8.559-3.723c0,2.875,0,2.875,0,2.875c9.262,0,9.262,0,9.262,0c0-53.238,0-53.238,0-53.238
	c-9.262,4.629-9.262,4.629-9.262,4.629V631.211z"/>
<path fill="#808080" d="M116.102,630.086c-1.753-1.408-4.486-2.316-7.011-2.316c-3.304,0-6.037,1.265-8.282,4.072
	c0-3.232,0-3.232,0-3.232c-9.333,0-9.333,0-9.333,0c0,37.6,0,37.6,0,37.6c9.333,0,9.333,0,9.333,0c0-20.412,0-20.412,0-20.412
	c0-5.961,2.104-8.697,6.662-8.697c2.25,0,4.354,0.773,6.178,2.034L116.102,630.086z"/>
<path fill="#808080" d="M37.109,642.43c-0.772,3.576-1.544,7.089-1.964,9.475c-0.56-2.945-1.613-6.95-2.245-9.475
	c-3.926-13.82-3.926-13.82-3.926-13.82c-7.931,0-7.931,0-7.931,0c-3.927,13.82-3.927,13.82-3.927,13.82
	c-0.702,2.596-1.684,6.669-2.245,9.402c-0.42-2.805-1.332-7.018-1.823-9.19C9.537,628.61,9.537,628.61,9.537,628.61
	c-9.537,0-9.537,0-9.537,0C10.519,666,10.519,666,10.519,666c0.07,0.21,0.07,0.21,0.07,0.21c8.071,0,8.071,0,8.071,0
	c4.067-15.285,4.067-15.285,4.067-15.285c0.701-2.316,1.754-7.021,2.104-8.494c0.56,2.105,1.404,5.406,2.104,8.141
	c4.144,15.639,4.144,15.639,4.144,15.639c7.994,0,7.994,0,7.994,0c10.664-37.6,10.664-37.6,10.664-37.6c-9.262,0-9.262,0-9.262,0
	L37.109,642.43z"/>
<path fill="#808080" d="M68.678,658.286c-4.627,0-7.643-4.277-7.643-10.875c0-6.662,3.016-10.941,7.643-10.941
	c4.629,0,7.574,4.279,7.574,10.941C76.251,654.008,73.307,658.286,68.678,658.286z M68.678,627.698
	c-9.963,0-17.117,8.282-17.117,19.713c0,11.365,7.154,19.646,17.117,19.646c9.894,0,17.119-8.281,17.119-19.646
	C85.797,635.98,78.572,627.698,68.678,627.698z"/>
<path fill="#808080" d="M386.125,630.086c-1.76-1.408-4.564-2.316-7.018-2.316c-3.297,0-6.102,1.265-8.277,4.072
	c0-3.232,0-3.232,0-3.232c-9.331,0-9.331,0-9.331,0c0,37.6,0,37.6,0,37.6c9.331,0,9.331,0,9.331,0c0-20.412,0-20.412,0-20.412
	c0-5.961,2.104-8.697,6.661-8.697c2.245,0,4.28,0.773,6.173,2.034L386.125,630.086z"/>
<path fill="#808080" d="M307.13,642.43c-0.77,3.576-1.542,7.089-1.961,9.475c-0.564-2.945-1.614-6.95-2.253-9.475
	c-3.926-13.82-3.926-13.82-3.926-13.82c-7.925,0-7.925,0-7.925,0c-3.933,13.82-3.933,13.82-3.933,13.82
	c-0.701,2.596-1.684,6.669-2.244,9.402c-0.421-2.805-1.333-7.018-1.893-9.19c-3.437-14.032-3.437-14.032-3.437-14.032
	c-9.543,0-9.543,0-9.543,0C280.542,666,280.542,666,280.542,666c0.069,0.21,0.069,0.21,0.069,0.21c8.07,0,8.07,0,8.07,0
	c4.068-15.285,4.068-15.285,4.068-15.285c0.701-2.316,1.753-7.021,2.104-8.494c0.49,2.105,1.333,5.406,2.102,8.141
	c4.14,15.639,4.14,15.639,4.14,15.639c7.998,0,7.998,0,7.998,0c10.666-37.6,10.666-37.6,10.666-37.6c-9.193,0-9.193,0-9.193,0
	L307.13,642.43z"/>
<path fill="#808080" d="M338.631,658.286c-4.635,0-7.65-4.277-7.65-10.875c0-6.593,3.016-10.871,7.65-10.871
	c4.628,0,7.645,4.278,7.645,10.871C346.275,654.008,343.259,658.286,338.631,658.286z M338.631,627.77
	c-9.896,0-17.117,8.278-17.117,19.641c0,11.365,7.221,19.646,17.117,19.646c9.889,0,17.115-8.281,17.115-19.646
	C355.746,636.048,348.52,627.77,338.631,627.77z"/>
<path fill="#808080" d="M151.389,628.61c-10.737,0-10.737,0-10.737,0c-7.431,9.614-7.431,9.614-7.431,9.614
	c-0.983,1.261-2.384,3.085-3.508,4.698c0-29.951,0-29.951,0-29.951c-9.263,4.629-9.263,4.629-9.263,4.629
	c0,48.609,0,48.609,0,48.609c9.263,0,9.263,0,9.263,0c0-11.289,0-11.289,0-11.289c4.909-6.173,4.909-6.173,4.909-6.173
	c7.93,17.462,7.93,17.462,7.93,17.462c10.239,0,10.239,0,10.239,0c-11.436-25.181-11.436-25.181-11.436-25.181L151.389,628.61z"/>
<path fill="#808080" d="M185.483,645.446c0-6.029,2.524-9.117,7.158-9.117c4.628,0,6.802,2.876,6.802,9.187
	c0,20.694,0,20.694,0,20.694c9.262,0,9.262,0,9.262,0c0-21.255,0-21.255,0-21.255c0-11.219-4.773-17.185-13.749-17.185
	c-3.857,0-7.161,1.408-9.474,4.002c0-3.162,0-3.162,0-3.162c-9.258,0-9.258,0-9.258,0c0,37.6,0,37.6,0,37.6c9.258,0,9.258,0,9.258,0
	V645.446z"/>
<path fill="#808080" d="M238.025,639.977c0,14.732,0,14.732,0,14.732c-1.473,1.963-3.226,3.716-6.591,3.716
	c-3.156,0-7.014-2.032-7.014-11.646c0-8.694,3.788-10.518,6.942-10.518C234.871,636.26,236.975,638.364,238.025,639.977z
	 M238.025,631.211c-2.242-2.252-5.118-3.441-8.344-3.441c-9.053,0-14.734,7.367-14.734,19.221c0,12.557,5.472,19.996,14.594,19.996
	c3.226,0,6.102-1.197,8.484-3.582c0,0.842,0,0.842,0,0.842c0,4.143,0,9.754-11.992,9.963c-0.42,0.07-0.42,0.07-0.42,0.07
	c3.297,7.225,3.297,7.225,3.297,7.225c0.14,0,0.14,0,0.14,0c12.348-0.141,18.309-6.312,18.309-18.801c0-34.094,0-34.094,0-34.094
	c-9.334,0-9.334,0-9.334,0V631.211z"/>
<rect x="158.548" y="628.609" fill="#808080" width="9.327" height="37.601"/>
<rect x="158.548" y="613.953" fill="#808080" width="9.327" height="9.257"/>
<polygon fill="#808080" points="390.543,666.209 399.801,666.209 399.801,612.971 390.543,617.6 "/>
<polygon fill="#808080" points="67.136,413.744 143.675,413.744 143.675,369.34 67.136,369.34 67.136,334.405 151.81,334.405 
	123.747,285.719 3.646,285.719 3.646,497.36 172.995,497.36 172.995,448.68 67.136,448.68 "/>
<polygon fill="#808080" points="285.66,285.719 249.743,354.818 213.897,285.719 143.675,285.719 217.611,413.813 217.611,497.36 
	280.891,497.36 280.891,413.813 354.977,285.719 "/>
<polygon fill="#FEE600" points="593.002,0 3.576,215.146 593.002,111.048 "/>
<g>
</g>
<g>
</g>
<g>
</g>
<g>
</g>
<g>
</g>
<g>
</g>
</svg>
