<svg id="Layer_1" data-name="Layer 1" xmlns="http://www.w3.org/2000/svg" width="67" height="52.44" viewBox="0 0 67 52.44">
  <title>quotes</title>
  <path d="M61.59,0c-6,3.33-12.35,8.42-16.22,13.5C40.74,19.76,38,26.81,38,33.66c0,11,6.37,18.78,15.25,18.78,7.53,0,13.52-6.26,13.52-14.08,0-6.85-4.83-12.53-10.62-12.53a8.4,8.4,0,0,0-2.13.2C55,18.4,59.47,12.33,67,8.61Zm-38,0c-6,3.33-12.36,8.42-16.22,13.5C2.7,19.76,0,26.81,0,33.66c0,11,6.37,18.78,15.25,18.78,7.53,0,13.52-6.26,13.52-14.08,0-6.85-4.83-12.53-10.62-12.53A8.33,8.33,0,0,0,16,26C17,18.4,21.43,12.33,29,8.61Z" style="fill: #fff"/>
</svg>
