<svg id="Layer_1" data-name="Layer 1" xmlns="http://www.w3.org/2000/svg" xmlns:xlink="http://www.w3.org/1999/xlink" width="28.06" height="30.07" viewBox="0 0 28.06 30.07">
  <defs>
    <clipPath id="clip-path">
      <rect width="28.06" height="30.07" style="fill: none"/>
    </clipPath>
  </defs>
  <title>icon1</title>
  <g style="clip-path: url(#clip-path)">
    <path d="M24.93,7.2a.5.5,0,0,0-.78.63A13,13,0,1,1,13.53,3V5a11,11,0,1,0,8.22,3.14.51.51,0,0,0-.71.72A10,10,0,1,1,13.53,6V8a8,8,0,1,0,3.17.43.5.5,0,1,0-.33.95,7,7,0,1,1-2.84-.37v2a5,5,0,1,0,2.73.5.5.5,0,1,0-.45.89,4,4,0,1,1-2.28-.38v2A2,2,0,1,0,16,16a.5.5,0,0,0-.5-.5.51.51,0,0,0-.5.5,1,1,0,1,1-1.5-.86V16a.5.5,0,1,0,1,0V1H18V5H16a.51.51,0,0,0-.5.5A.5.5,0,0,0,16,6h2v.5a.5.5,0,0,0,.5.51h4a.5.5,0,0,0,.5-.51v-5a.5.5,0,0,0-.5-.5h-2a.51.51,0,0,0-.5.5.5.5,0,0,0,.5.5h1.51V6H19V.5a.5.5,0,0,0-.5-.5H14a.5.5,0,0,0-.5.5V2A14,14,0,1,0,24.93,7.2" style="fill: #fff"/>
  </g>
</svg>
