<svg version="1.1" id="Layer_1" xmlns="http://www.w3.org/2000/svg" xmlns:xlink="http://www.w3.org/1999/xlink" x="0px" y="0px"
	 viewBox="0 0 41.6 41.6" enable-background="new 0 0 41.6 41.6" xml:space="preserve">
<g>
	<path fill="#009ed8" d="M20.8,0C9.3,0,0,9.3,0,20.8s9.3,20.8,20.8,20.8c11.5,0,20.8-9.3,20.8-20.8S32.3,0,20.8,0L20.8,0z
		 M30.8,22.4h-8.4v8.8c0,0.9-0.7,1.6-1.6,1.6c-0.9,0-1.6-0.7-1.6-1.6v-8.8h-8.4c-0.9,0-1.6-0.7-1.6-1.6s0.7-1.6,1.6-1.6h8.4v-8
		c0-0.9,0.7-1.6,1.6-1.6c0.9,0,1.6,0.7,1.6,1.6v8h8.4c0.9,0,1.6,0.7,1.6,1.6S31.7,22.4,30.8,22.4L30.8,22.4z M30.8,22.4"/>
</g>
</svg>
