<?xml version="1.0" encoding="utf-8"?>
<!-- Generator: Adobe Illustrator 21.1.0, SVG Export Plug-In . SVG Version: 6.00 Build 0)  -->
<svg version="1.1" id="Layer_1" xmlns="http://www.w3.org/2000/svg" xmlns:xlink="http://www.w3.org/1999/xlink" x="0px" y="0px"
	 viewBox="0 0 29 22.3" enable-background="new 0 0 29 22.3" xml:space="preserve">
<path fill="#5D6771" d="M0.1,10.8C0,11,0,11.3,0.1,11.5c0,0.1,0.1,0.2,0.2,0.3l9.9,10.3c0.3,0.3,0.8,0.3,1.2,0
	c0.3-0.3,0.3-0.9,0-1.2L2.8,12h25.4c0.5,0,0.8-0.4,0.8-0.9c0-0.5-0.4-0.9-0.8-0.9H2.8l8.5-8.8c0.3-0.3,0.3-0.9,0-1.2
	C11.2,0.1,11,0,10.8,0c-0.2,0-0.4,0.1-0.6,0.3L0.2,10.6C0.2,10.6,0.1,10.7,0.1,10.8"/>
</svg>
