<?xml version="1.0" encoding="utf-8"?>
<!-- Generator: Adobe Illustrator 21.1.0, SVG Export Plug-In . SVG Version: 6.00 Build 0)  -->
<svg version="1.1" id="Layer_1" xmlns="http://www.w3.org/2000/svg" xmlns:xlink="http://www.w3.org/1999/xlink" x="0px" y="0px"
	 viewBox="0 0 29 22.3" enable-background="new 0 0 29 22.3" xml:space="preserve">
<path fill="#5D6771" d="M28.9,11.5c0.1-0.2,0.1-0.4,0-0.7c0-0.1-0.1-0.2-0.2-0.3L18.8,0.3c-0.3-0.3-0.9-0.3-1.2,0
	c-0.3,0.3-0.3,0.9,0,1.2l8.5,8.8H0.8c-0.5,0-0.8,0.4-0.8,0.9C0,11.6,0.4,12,0.8,12h25.4l-8.5,8.8c-0.3,0.3-0.3,0.9,0,1.2
	c0.2,0.2,0.4,0.3,0.6,0.3c0.2,0,0.4-0.1,0.6-0.3l9.9-10.3C28.8,11.7,28.9,11.6,28.9,11.5"/>
</svg>
