<?xml version="1.0" encoding="utf-8"?>
<!-- Generator: Adobe Illustrator 21.1.0, SVG Export Plug-In . SVG Version: 6.00 Build 0)  -->
<svg version="1.1" id="Layer_1" xmlns="http://www.w3.org/2000/svg" xmlns:xlink="http://www.w3.org/1999/xlink" x="0px" y="0px"
	 viewBox="0 0 35.7 46.4" enable-background="new 0 0 35.7 46.4" xml:space="preserve">
<path fill="#005cb8" d="M18.4,0.1c-0.3-0.1-0.7-0.1-1.1,0c-0.2,0.1-0.3,0.2-0.5,0.3L0.4,16.3c-0.5,0.5-0.5,1.4,0,1.9
	c0.5,0.5,1.4,0.5,1.9,0L16.5,4.5v40.5c0,0.7,0.6,1.3,1.4,1.3c0.8,0,1.4-0.6,1.4-1.3V4.5l14.2,13.6c0.5,0.5,1.4,0.5,1.9,0
	c0.3-0.3,0.4-0.6,0.4-0.9c0-0.3-0.1-0.7-0.4-0.9L18.8,0.4C18.7,0.3,18.6,0.2,18.4,0.1"/>
<g>
</g>
<g>
</g>
<g>
</g>
<g>
</g>
<g>
</g>
<g>
</g>
<g>
</g>
<g>
</g>
<g>
</g>
<g>
</g>
<g>
</g>
<g>
</g>
<g>
</g>
<g>
</g>
<g>
</g>
</svg>
